<?xml version="1.0" standalone="no"?>
<!DOCTYPE svg PUBLIC "-//W3C//DTD SVG 20010904//EN"
 "http://www.w3.org/TR/2001/REC-SVG-20010904/DTD/svg10.dtd">
<svg version="1.0" xmlns="http://www.w3.org/2000/svg"
 width="1680.000000pt" height="732.000000pt" viewBox="0 0 1680.000000 732.000000"
 preserveAspectRatio="xMidYMid meet">

<g transform="translate(0.000000,732.000000) scale(0.100000,-0.100000)"
fill="#000000" stroke="none">
<path d="M11867 6102 c-15 -17 -17 -73 -17 -600 0 -569 0 -582 20 -602 20 -20
33 -20 570 -20 537 0 550 0 570 20 20 20 20 33 20 603 0 553 -1 585 -18 600
-17 15 -71 17 -574 17 -525 0 -556 -1 -571 -18z m1116 -21 c4 0 7 -262 7 -581
l0 -580 -550 0 -550 0 0 579 c0 538 1 580 17 583 15 3 1058 2 1076 -1z"/>
<path d="M12485 5898 c14 -6 8 -7 -20 -3 -25 3 -35 1 -26 -4 11 -7 9 -10 -8
-16 -11 -3 -25 -3 -31 0 -6 4 -9 1 -8 -6 2 -6 -3 -14 -11 -17 -9 -3 -11 0 -6
8 6 9 3 9 -11 1 -37 -21 -56 -40 -58 -58 -2 -10 -9 -18 -17 -18 -8 0 -26 -25
-42 -54 -22 -46 -26 -64 -22 -105 4 -36 3 -45 -4 -31 -8 17 -10 16 -10 -12 -1
-17 4 -35 9 -38 6 -4 8 -10 5 -15 -3 -5 -1 -29 6 -52 6 -24 14 -37 16 -30 3 6
9 10 14 7 5 -4 6 1 3 9 -3 9 -10 13 -15 10 -6 -3 -7 6 -4 23 5 22 4 25 -5 13
-9 -12 -10 -9 -6 15 3 17 6 59 8 95 2 36 5 67 8 70 11 10 40 60 40 67 0 4 -7
-1 -15 -11 -8 -11 -15 -15 -15 -9 0 14 25 34 33 26 4 -3 9 1 13 10 9 23 92 82
135 96 49 16 139 30 139 22 0 -4 21 -12 47 -19 63 -17 136 -73 168 -128 18
-31 30 -43 37 -36 12 12 -7 53 -24 49 -6 -1 -13 4 -16 12 -3 9 0 11 8 6 24
-15 -20 41 -54 67 -22 18 -41 25 -52 21 -12 -4 -15 -3 -10 5 10 16 -32 31 -70
25 -19 -3 -25 -2 -16 5 9 6 -12 9 -60 9 -50 0 -67 -3 -53 -9z m180 -18 c13 -6
15 -9 5 -9 -8 0 -22 4 -30 9 -18 12 -2 12 25 0z m110 -81 c11 -12 -1 -5 -27
16 -27 22 -48 41 -48 43 0 7 56 -36 75 -59z m-405 48 c0 -2 -15 -13 -32 -26
l-33 -22 28 25 c26 24 37 31 37 23z m-119 -140 c-10 -9 -11 -8 -5 6 3 10 9 15
12 12 3 -3 0 -11 -7 -18z"/>
<path d="M12830 5660 c0 -6 3 -10 8 -10 4 0 5 -35 1 -77 -3 -43 -4 -85 -1 -93
3 -8 1 -12 -3 -8 -5 5 -18 -9 -31 -29 -16 -27 -19 -40 -11 -45 8 -5 6 -8 -5
-8 -12 0 -15 -5 -11 -17 5 -12 2 -15 -10 -10 -9 3 -16 3 -16 -1 3 -18 -2 -26
-10 -14 -6 10 -10 10 -21 -3 -11 -13 -10 -15 6 -9 18 5 18 5 0 -10 -11 -9 -22
-12 -25 -7 -3 5 -21 1 -39 -9 -21 -12 -28 -20 -20 -24 7 -3 -5 -3 -27 -1 -30
4 -35 3 -20 -4 16 -8 12 -10 -23 -10 -23 -1 -51 4 -61 10 -11 7 -29 9 -47 4
l-29 -7 25 -10 c43 -17 170 -5 222 20 53 26 132 98 123 112 -3 6 -1 10 5 10
28 0 68 150 56 214 -6 30 -36 60 -36 36z m17 -162 c-3 -8 -6 -5 -6 6 -1 11 2
17 5 13 3 -3 4 -12 1 -19z m-157 -192 c0 -2 -7 -7 -16 -10 -8 -3 -12 -2 -9 4
6 10 25 14 25 6z"/>
<path d="M12265 5430 c-5 -9 -4 -11 3 -6 7 4 12 2 12 -3 0 -10 -22 -16 -44
-12 -16 3 -55 -41 -49 -56 4 -9 0 -13 -8 -12 -20 5 -73 -32 -59 -41 7 -5 6
-11 -5 -20 -12 -10 -15 -10 -15 1 0 7 -16 -2 -35 -21 -91 -89 13 -194 111
-112 17 15 65 58 107 95 l76 68 31 -16 c23 -12 35 -13 48 -5 14 9 13 10 -7 4
-15 -4 -21 -2 -17 4 4 6 -2 16 -13 21 -26 14 -34 14 -25 -1 4 -7 3 -8 -5 -4
-6 4 -9 11 -6 15 2 5 -8 19 -23 33 -15 13 -37 37 -48 53 -16 21 -23 25 -29 15z
m68 -79 c-5 -7 -53 41 -53 52 0 5 12 -3 28 -19 15 -16 26 -31 25 -33z m-39 18
c14 -16 32 -29 40 -29 9 0 16 -5 16 -12 0 -14 -113 -118 -120 -111 -3 3 9 16
25 30 17 14 21 20 10 15 -24 -12 -92 -82 -80 -82 5 0 -2 -11 -15 -25 -17 -18
-29 -23 -48 -18 -16 4 -23 2 -18 -5 4 -6 -2 -8 -14 -5 -21 6 -50 39 -50 58 0
5 5 3 10 -5 8 -12 10 -10 10 10 0 17 14 40 40 65 22 21 37 41 35 44 -9 8 26
40 39 35 6 -2 25 10 41 28 17 18 21 25 9 15 -11 -9 -25 -17 -30 -17 -5 1 0 9
12 18 32 27 60 24 88 -9z m-210 -114 c-4 -8 -10 -15 -15 -15 -5 0 -14 -10 -19
-22 -5 -13 -9 -17 -9 -9 -1 8 9 25 21 38 25 27 29 29 22 8z m131 -64 c-3 -6
-11 -11 -17 -11 -6 0 -6 6 2 15 14 17 26 13 15 -4z"/>
<path d="M12150 5315 c-8 -9 -8 -15 -2 -15 12 0 26 19 19 26 -2 2 -10 -2 -17
-11z"/>
<path d="M12309 5304 l-24 -27 28 18 c15 9 27 21 27 26 0 14 -5 11 -31 -17z"/>
<path d="M12145 5160 c-10 -11 -13 -20 -8 -20 13 0 38 29 31 35 -3 3 -13 -4
-23 -15z"/>
<path d="M12067 5149 c7 -7 15 -10 18 -7 3 3 -2 9 -12 12 -14 6 -15 5 -6 -5z"/>
<path d="M13227 6102 c-15 -17 -17 -73 -17 -600 0 -569 0 -582 20 -602 20 -20
33 -20 570 -20 537 0 550 0 570 20 20 20 20 33 20 603 0 553 -1 585 -18 600
-17 15 -71 17 -574 17 -525 0 -556 -1 -571 -18z m1111 -21 c9 -1 12 -124 12
-581 l0 -580 -550 0 -550 0 0 579 c0 383 3 580 10 583 9 3 1047 2 1078 -1z"/>
<path d="M13716 5882 c-3 -5 -20 -7 -38 -5 -28 3 -30 2 -13 -7 15 -8 8 -9 -30
-6 -29 3 -42 2 -30 -3 18 -7 17 -8 -7 -14 -15 -4 -34 -4 -42 -1 -11 4 -16 1
-16 -10 0 -9 -5 -16 -11 -16 -5 0 -7 5 -3 11 5 8 1 8 -14 0 -12 -6 -24 -17
-29 -24 -4 -6 -8 -116 -8 -243 -1 -177 2 -231 11 -231 7 0 12 5 11 11 -2 13 0
12 78 -15 119 -42 375 -36 483 11 l42 19 0 -66 c0 -55 -4 -71 -22 -90 -20 -21
-20 -23 -4 -17 14 5 17 4 12 -5 -5 -8 -18 -10 -35 -7 -17 4 -21 3 -13 -2 10
-7 5 -12 -20 -21 -31 -10 -32 -10 -13 5 19 15 19 15 -10 8 -16 -4 -31 -10 -33
-14 -1 -3 -16 -4 -32 -2 -17 2 -30 0 -30 -5 0 -10 -165 -10 -190 0 -8 3 -34 8
-57 11 -23 3 -50 9 -60 12 -15 5 -15 4 -3 -5 17 -12 2 -15 -25 -5 -13 6 -14 9
-3 16 8 5 2 6 -17 2 -19 -3 -25 -2 -17 3 10 7 8 14 -8 28 -12 11 -20 13 -20 6
0 -7 -4 -9 -10 -6 -5 3 -7 0 -4 -9 9 -22 94 -59 141 -60 22 -1 39 -5 36 -9 -3
-5 24 -7 61 -5 36 1 66 0 66 -3 0 -5 35 -4 50 1 3 1 26 1 53 0 26 -1 47 3 47
8 0 6 9 8 19 5 27 -7 115 24 137 48 17 19 18 44 19 307 0 161 -3 269 -7 247
-4 -22 -7 -71 -5 -109 1 -54 -1 -70 -13 -74 -13 -5 -13 -3 -2 11 10 12 3 10
-26 -6 -22 -12 -37 -24 -32 -27 5 -3 -18 -6 -50 -7 -32 0 -63 -4 -68 -7 -6 -3
-69 -7 -141 -9 -71 -1 -125 1 -118 5 8 5 7 8 -5 8 -9 0 -25 3 -35 6 -15 5 -15
4 -3 -5 13 -9 13 -11 0 -10 -8 0 -24 4 -35 9 -20 8 -20 9 0 9 12 1 4 9 -25 24
-25 12 -47 19 -48 14 -2 -4 -8 -4 -13 -1 -6 3 -5 12 3 22 10 12 10 14 1 8 -8
-4 -13 -1 -13 9 0 9 4 14 8 11 5 -3 9 1 9 9 0 8 -4 12 -9 9 -4 -3 -8 2 -8 11
0 9 4 14 8 11 5 -3 9 1 9 9 0 8 -4 12 -9 9 -4 -3 -8 2 -8 11 0 10 5 13 12 9 6
-4 8 -3 4 4 -12 20 11 21 63 2 51 -20 109 -28 66 -10 -16 7 -17 9 -3 9 9 1 21
-6 26 -15 7 -13 19 -16 55 -12 27 3 51 1 58 -6 9 -8 10 -8 4 3 -6 10 -4 12 6
5 20 -12 59 -16 59 -5 0 5 16 7 36 4 20 -3 57 -2 83 2 38 6 43 9 26 16 -15 7
-12 8 13 4 18 -2 50 2 72 11 32 13 40 21 40 42 0 23 -1 24 -17 10 -10 -8 -27
-21 -38 -27 -18 -11 -18 -12 5 -6 18 4 21 3 10 -3 -23 -15 -63 -25 -57 -15 4
7 -112 -8 -133 -17 -19 -9 -214 10 -275 26 -16 4 -17 3 -5 -5 11 -8 11 -11 2
-11 -15 0 -72 28 -72 36 0 2 9 0 21 -6 11 -7 23 -9 27 -6 3 3 1 6 -5 6 -6 0
-22 9 -37 21 -21 16 -24 24 -16 39 11 20 106 60 144 60 12 0 25 3 28 6 7 7
217 7 238 0 8 -2 39 -10 68 -16 29 -7 68 -23 88 -36 19 -13 37 -24 39 -24 11
0 4 29 -10 40 -13 11 -14 10 -9 -5 6 -15 5 -16 -14 -4 -12 7 -17 16 -11 19 5
4 -2 12 -16 18 -32 15 -38 15 -30 2 3 -5 1 -10 -5 -10 -6 0 -13 7 -17 16 -4
12 -15 14 -47 10 -26 -4 -34 -3 -21 2 15 7 9 10 -29 15 -68 10 -184 9 -190 -1z
m31 -8 c-3 -3 -12 -4 -19 -1 -8 3 -5 6 6 6 11 1 17 -2 13 -5z m136 -1 c-7 -2
-19 -2 -25 0 -7 3 -2 5 12 5 14 0 19 -2 13 -5z m-377 -75 c-20 -30 -20 -39 -4
-49 11 -7 10 -11 -3 -24 -14 -14 -15 -13 -14 17 2 42 14 78 26 78 5 0 3 -10
-5 -22z m16 -256 c-8 -42 345 -86 378 -47 7 8 24 14 39 14 26 -1 26 -1 -4 -10
-22 -6 -17 -7 20 -3 28 3 68 14 90 25 22 10 29 16 15 13 -14 -4 -22 -3 -18 1
5 5 20 9 35 10 l28 1 0 -92 c0 -51 -1 -91 -3 -89 -2 2 -22 -5 -45 -16 -46 -21
-84 -27 -57 -9 11 7 5 8 -20 4 -19 -4 -42 -13 -51 -20 -11 -10 -46 -14 -125
-13 -78 1 -101 4 -79 10 22 6 13 7 -32 4 -68 -5 -163 19 -163 40 0 7 -6 18
-14 24 -10 9 -15 8 -19 -3 -4 -10 -1 -13 9 -9 7 3 14 -1 14 -8 0 -7 -3 -9 -7
-6 -3 4 -11 3 -17 -3 -8 -6 -12 1 -12 25 0 18 3 32 6 30 4 -2 7 2 7 10 0 8 -4
12 -9 9 -4 -3 -8 2 -8 11 0 9 4 14 8 11 5 -3 9 1 9 9 0 8 -4 12 -9 9 -4 -3 -8
2 -8 11 0 9 4 14 8 11 5 -3 9 1 9 9 0 8 -3 12 -7 10 -3 -2 -6 7 -6 19 0 17 5
23 21 22 11 -1 19 -7 17 -14z m481 -29 c-7 -2 -19 -2 -25 0 -7 3 -2 5 12 5 14
0 19 -2 13 -5z"/>
<path d="M13495 5540 c-3 -6 1 -7 9 -4 18 7 21 14 7 14 -6 0 -13 -4 -16 -10z"/>
<path d="M14071 5380 c-13 -11 -30 -20 -39 -20 -8 0 -12 -3 -9 -6 9 -10 65 15
71 32 7 18 6 17 -23 -6z"/>
<path d="M13550 5360 c8 -5 20 -10 25 -10 6 0 3 5 -5 10 -8 5 -19 10 -25 10
-5 0 -3 -5 5 -10z"/>
<path d="M13628 5333 c6 -2 18 -2 25 0 6 3 1 5 -13 5 -14 0 -19 -2 -12 -5z"/>
<path d="M13863 5323 c9 -2 25 -2 35 0 9 3 1 5 -18 5 -19 0 -27 -2 -17 -5z"/>
<path d="M13478 5313 c7 -3 16 -2 19 1 4 3 -2 6 -13 5 -11 0 -14 -3 -6 -6z"/>
<path d="M13474 5261 c1 -32 18 -43 22 -13 1 6 -2 10 -7 6 -5 -3 -9 2 -9 11 0
9 4 14 8 11 5 -3 9 1 9 8 0 7 -6 13 -12 13 -8 0 -12 -14 -11 -36z"/>
<path d="M6914 6078 c-40 -19 -44 -47 -44 -332 0 -349 -14 -324 178 -328 l137
-3 3 -87 3 -88 -135 0 c-117 0 -137 -2 -157 -19 l-24 -19 -3 -289 c-3 -282 -2
-290 18 -316 l21 -27 140 0 140 0 -3 -87 -3 -88 -136 -3 c-123 -2 -138 -5
-155 -23 -18 -20 -19 -41 -19 -316 l0 -295 24 -19 c19 -16 40 -19 117 -19 l93
0 3 -102 3 -103 303 -3 c199 -1 302 1 303 8 1 5 2 52 3 103 l1 92 352 3 352 2
3 -102 3 -103 300 0 300 0 3 103 3 102 90 0 c82 0 92 2 114 25 l25 24 0 284
c0 363 14 337 -176 337 l-134 0 0 90 0 90 135 0 c190 0 175 -29 175 332 l0
289 -25 24 c-23 24 -29 25 -155 25 l-130 0 0 90 0 90 135 0 c191 0 175 -30
175 330 l0 291 -25 24 -24 25 -1143 -1 c-765 0 -1150 -4 -1164 -11z m2301
-328 l0 -285 -1145 0 -1145 0 -3 275 c-1 151 0 280 3 287 3 11 231 13 1147 11
l1143 -3 0 -285z m-305 -417 l0 -83 -840 0 -840 0 0 78 c0 43 2 81 5 83 2 3
380 5 840 5 l835 0 0 -83z m308 -430 l-3 -288 -1125 -3 c-619 -1 -1135 0
-1147 3 l-23 5 0 279 c0 153 3 281 7 284 3 4 521 7 1150 7 l1143 0 -2 -287z
m-308 -428 l0 -85 -840 0 -840 0 0 85 0 85 840 0 840 0 0 -85z m298 -134 c9
-1 12 -65 12 -286 0 -221 -3 -285 -12 -286 -45 -3 -2247 -5 -2265 -1 l-23 4 0
283 c0 198 3 284 11 287 10 3 2247 3 2277 -1z m-1528 -706 l0 -85 -260 0 -260
0 0 85 0 85 260 0 260 0 0 -85z m1318 3 l-3 -83 -260 0 -260 0 -3 69 c-2 38
-1 75 2 83 4 10 57 13 266 13 l261 0 -3 -82z"/>
<path d="M7240 5871 c0 -5 5 -13 10 -16 12 -8 9 -37 -5 -47 -6 -5 -4 -8 4 -8
11 0 9 -4 -5 -14 -18 -14 -18 -15 -1 -22 15 -5 16 -9 5 -15 -10 -7 -10 -9 1
-9 11 0 9 -4 -5 -14 -18 -14 -18 -15 -1 -21 10 -5 17 -17 16 -34 l-1 -26 -7
25 -7 25 -6 -27 c-9 -46 0 -49 128 -46 l119 3 0 125 0 125 -122 3 c-75 2 -123
-1 -123 -7z m240 -32 c0 -5 -4 -9 -10 -9 -5 0 -10 7 -10 16 0 8 5 12 10 9 6
-3 10 -10 10 -16z m-17 -13 c20 -15 23 -56 5 -57 -10 0 -10 -2 0 -6 6 -2 12
-12 12 -21 0 -15 -2 -15 -10 -2 -6 9 -10 10 -10 3 0 -6 4 -14 10 -18 5 -3 9
-26 8 -50 l-1 -45 -113 0 c-62 0 -115 3 -118 8 -2 4 42 7 100 6 58 -1 101 2
98 7 -3 5 -43 9 -90 9 l-84 0 0 90 0 90 88 0 c56 -1 93 -5 105 -14z"/>
<path d="M7461 5794 c0 -11 3 -14 6 -6 3 7 2 16 -1 19 -3 4 -6 -2 -5 -13z"/>
<path d="M7462 5690 c0 -14 2 -19 5 -12 2 6 2 18 0 25 -3 6 -5 1 -5 -13z"/>
<path d="M7762 5839 c-1 -44 7 -49 10 -6 1 14 5 24 9 22 9 -6 -2 -59 -15 -67
-8 -5 -7 -8 2 -8 7 0 12 -14 12 -34 0 -19 -6 -37 -12 -39 -10 -4 -10 -6 0 -6
6 -1 12 -9 12 -18 0 -13 -2 -15 -9 -5 -5 8 -8 0 -9 -23 l-1 -36 122 3 122 3 3
128 3 127 -125 0 -124 0 0 -41z m235 4 c0 -7 -4 -10 -9 -7 -4 3 -8 0 -8 -5 0
-6 6 -11 13 -11 8 0 7 -4 -3 -10 -13 -9 -13 -10 0 -11 10 0 11 -2 3 -6 -7 -2
-13 -9 -13 -14 0 -6 4 -8 8 -5 5 3 9 -1 9 -9 0 -8 -4 -12 -9 -9 -4 3 -8 0 -8
-5 0 -6 6 -11 13 -12 10 0 10 -2 0 -6 -7 -2 -13 -11 -13 -19 0 -8 6 -14 13
-14 8 0 7 -4 -3 -10 -13 -9 -13 -10 0 -10 13 0 13 -1 0 -10 -8 -5 -57 -10
-107 -10 l-93 0 0 90 0 90 91 0 c49 0 88 4 85 8 -2 4 3 8 13 8 10 0 18 -6 18
-13z m-119 -202 c54 -2 88 2 98 10 8 6 17 9 21 5 3 -3 0 -6 -8 -6 -11 0 -11
-2 1 -10 10 -7 -23 -10 -102 -10 -102 0 -118 2 -118 16 0 12 4 14 13 7 6 -5
49 -11 95 -12z"/>
<path d="M7235 5839 c-4 -6 -5 -12 -2 -15 2 -3 7 2 10 11 7 17 1 20 -8 4z"/>
<path d="M7762 5745 c0 -16 2 -22 5 -12 2 9 2 23 0 30 -3 6 -5 -1 -5 -18z"/>
<path d="M8213 5008 c3 -9 2 -19 -2 -21 -3 -2 -1 -3 5 -1 7 1 11 -13 10 -37 0
-21 -4 -39 -7 -39 -4 0 -10 -7 -13 -16 -6 -14 -4 -15 9 -4 13 11 16 11 13 -1
-2 -8 -7 -17 -13 -21 -6 -5 -4 -8 5 -8 13 0 13 -1 0 -10 -11 -7 -11 -10 -2
-10 7 0 10 -5 7 -10 -4 -6 -12 -7 -18 -3 -7 3 -4 -3 6 -14 14 -16 15 -22 5
-26 -7 -2 44 -5 113 -5 l127 0 -1 49 c0 26 -4 46 -9 43 -4 -3 -6 -10 -3 -15 4
-5 2 -9 -4 -9 -5 0 -9 20 -8 45 0 25 5 45 10 45 5 0 7 -9 4 -20 -3 -11 -2 -22
2 -24 4 -3 8 26 9 63 l2 68 -33 0 c-26 1 -28 -1 -12 -7 13 -6 -13 -9 -72 -9
-50 -1 -100 -4 -110 -7 -12 -5 -15 -4 -8 4 6 5 19 12 30 15 11 3 5 4 -13 4
-26 -1 -32 -5 -29 -19z m234 -23 c0 -19 -5 -35 -10 -35 -5 0 -7 9 -4 21 3 12
3 18 -1 14 -4 -4 -7 -43 -7 -88 l-1 -82 -84 -3 c-46 -2 -87 -7 -91 -13 -3 -6
-11 -3 -20 7 -9 12 -10 15 -1 10 9 -5 12 15 12 88 l0 96 94 0 c53 0 98 4 101
10 10 16 12 12 12 -25z m3 -160 c0 -8 -6 -15 -12 -15 -9 0 -8 -3 2 -10 12 -7
10 -9 -7 -7 -20 1 -21 3 -8 17 8 9 12 20 8 23 -3 4 -1 7 5 7 7 0 12 -7 12 -15z"/>
<path d="M8288 5023 c7 -3 16 -2 19 1 4 3 -2 6 -13 5 -11 0 -14 -3 -6 -6z"/>
<path d="M8328 5023 c7 -3 16 -2 19 1 4 3 -2 6 -13 5 -11 0 -14 -3 -6 -6z"/>
<path d="M8368 5023 c7 -3 16 -2 19 1 4 3 -2 6 -13 5 -11 0 -14 -3 -6 -6z"/>
<path d="M8730 5013 c0 -15 2 -16 10 -3 12 18 12 19 10 -100 -1 -60 -6 -98
-13 -103 -8 -6 -7 -7 3 -4 12 3 16 25 18 100 l3 97 87 0 c56 -1 93 -5 105 -14
19 -14 23 -36 7 -36 -5 0 -10 -8 -10 -17 0 -15 2 -16 10 -3 6 9 10 10 10 3 0
-6 -4 -15 -10 -18 -5 -3 -10 -14 -10 -23 0 -15 2 -15 10 -2 6 9 10 10 10 3 0
-6 -4 -15 -10 -18 -5 -3 -10 -14 -10 -23 0 -15 2 -15 10 -2 5 8 10 10 10 4 0
-5 -5 -15 -12 -22 -9 -9 -9 -12 0 -12 7 0 12 -7 12 -15 0 -8 -7 -15 -15 -15
-8 0 -15 5 -15 10 0 6 -35 10 -86 10 -62 0 -83 -3 -78 -12 4 -6 3 -9 -2 -6 -5
3 -18 2 -29 -2 -11 -5 36 -8 108 -9 l127 -1 0 125 0 125 -37 0 c-28 0 -34 -3
-23 -10 10 -7 -13 -10 -75 -10 -62 0 -85 3 -75 10 12 8 9 10 -12 10 -20 0 -28
-5 -28 -17z m237 -10 c0 -7 -4 -13 -8 -13 -4 0 -9 6 -12 13 -3 8 0 14 7 14 7
0 13 -6 13 -14z"/>
<path d="M8798 5023 c7 -3 16 -2 19 1 4 3 -2 6 -13 5 -11 0 -14 -3 -6 -6z"/>
<path d="M8838 5023 c7 -3 16 -2 19 1 4 3 -2 6 -13 5 -11 0 -14 -3 -6 -6z"/>
<path d="M8878 5023 c7 -3 16 -2 19 1 4 3 -2 6 -13 5 -11 0 -14 -3 -6 -6z"/>
<path d="M8203 4955 c0 -8 4 -12 9 -9 5 3 6 10 3 15 -9 13 -12 11 -12 -6z"/>
<path d="M7252 4163 c7 -9 41 -13 109 -13 63 0 99 -4 99 -11 0 -5 5 -7 10 -4
6 3 10 -5 10 -19 0 -13 -6 -27 -12 -29 -10 -4 -10 -6 0 -6 6 -1 12 -7 12 -15
0 -8 -6 -17 -12 -19 -10 -4 -10 -6 0 -6 6 -1 12 -12 12 -26 0 -14 -6 -25 -12
-25 -9 0 -9 -3 1 -9 8 -5 11 -16 8 -25 -5 -13 -25 -16 -122 -16 -80 0 -114 3
-110 11 4 6 12 8 19 6 8 -3 10 22 8 89 -2 55 -7 92 -13 89 -5 -4 -9 -1 -9 6 0
18 -10 5 -15 -20 -2 -12 0 -19 6 -16 5 4 6 12 3 18 -4 7 -3 8 2 4 11 -11 13
-97 2 -97 -4 0 -8 -5 -8 -11 0 -5 4 -8 8 -5 13 8 8 -40 -6 -56 -6 -8 -9 -18
-5 -21 3 -4 62 -7 130 -7 l123 0 -1 128 c-1 70 -3 119 -6 110 -2 -10 -8 -18
-13 -18 -5 0 -8 6 -6 13 1 6 1 9 -1 5 -3 -5 -50 -8 -106 -7 -67 0 -95 3 -82 9
17 8 17 8 -7 7 -21 -1 -24 -4 -16 -14z"/>
<path d="M7308 4173 c7 -3 16 -2 19 1 4 3 -2 6 -13 5 -11 0 -14 -3 -6 -6z"/>
<path d="M7348 4173 c7 -3 16 -2 19 1 4 3 -2 6 -13 5 -11 0 -14 -3 -6 -6z"/>
<path d="M7388 4173 c7 -3 16 -2 19 1 4 3 -2 6 -13 5 -11 0 -14 -3 -6 -6z"/>
<path d="M7428 4173 c7 -3 16 -2 19 1 4 3 -2 6 -13 5 -11 0 -14 -3 -6 -6z"/>
<path d="M7788 4173 c7 -3 16 -2 19 1 4 3 -2 6 -13 5 -11 0 -14 -3 -6 -6z"/>
<path d="M7828 4173 c7 -3 16 -2 19 1 4 3 -2 6 -13 5 -11 0 -14 -3 -6 -6z"/>
<path d="M7868 4173 c7 -3 16 -2 19 1 4 3 -2 6 -13 5 -11 0 -14 -3 -6 -6z"/>
<path d="M7908 4173 c7 -3 16 -2 19 1 4 3 -2 6 -13 5 -11 0 -14 -3 -6 -6z"/>
<path d="M7955 4170 c13 -6 -15 -9 -77 -9 l-98 -1 0 -34 c0 -19 -6 -37 -12
-39 -10 -4 -10 -6 0 -6 6 -1 12 -12 12 -26 0 -14 -6 -25 -12 -25 -10 0 -10 -2
-1 -8 6 -4 13 -23 16 -42 2 -19 5 11 5 68 l2 102 94 0 c66 0 96 4 98 12 3 7 7
2 10 -10 4 -12 3 -20 -1 -17 -11 6 -8 -36 3 -54 6 -10 5 -12 -2 -7 -7 4 -12 3
-12 -3 0 -5 6 -12 13 -14 10 -4 10 -6 0 -6 -7 -1 -13 -6 -13 -12 0 -5 4 -8 8
-5 5 3 9 -1 9 -9 0 -8 -4 -12 -9 -9 -4 3 -8 -4 -8 -15 0 -10 -2 -28 -5 -38 -3
-10 1 -4 9 12 l14 30 0 -32 -1 -32 -121 -4 -121 -3 128 -2 127 -2 0 123 0 122
-38 2 c-28 1 -32 -1 -17 -7z"/>
<path d="M7761 4114 c0 -11 3 -14 6 -6 3 7 2 16 -1 19 -3 4 -6 -2 -5 -13z"/>
<path d="M7239 4083 c0 -5 -2 -16 -4 -26 -2 -11 -1 -16 3 -13 8 8 14 46 7 46
-3 0 -5 -3 -6 -7z"/>
<path d="M7761 4054 c0 -11 3 -14 6 -6 3 7 2 16 -1 19 -3 4 -6 -2 -5 -13z"/>
<path d="M7461 4014 c0 -11 3 -14 6 -6 3 7 2 16 -1 19 -3 4 -6 -2 -5 -13z"/>
<path d="M7761 3994 c0 -11 3 -14 6 -6 3 7 2 16 -1 19 -3 4 -6 -2 -5 -13z"/>
<path d="M7230 3989 c0 -5 5 -7 10 -4 6 3 10 8 10 11 0 2 -4 4 -10 4 -5 0 -10
-5 -10 -11z"/>
<path d="M7445 3960 c-16 -7 -17 -9 -3 -9 9 -1 20 4 23 9 7 11 7 11 -20 0z"/>
<path d="M3990 6065 c-423 -58 -829 -263 -1177 -593 l-62 -58 -138 -12 c-76
-6 -184 -17 -241 -23 l-103 -12 -272 -274 c-150 -151 -272 -280 -272 -286 0
-9 78 -13 307 -15 l307 -2 -25 -55 c-13 -31 -24 -61 -24 -67 0 -7 23 -36 52
-65 l52 -53 -121 0 c-79 0 -124 -4 -129 -11 -7 -13 583 -609 603 -609 10 0 13
32 13 127 l0 127 58 -58 59 -57 63 25 c35 14 65 26 67 26 2 0 3 -139 3 -310 0
-242 3 -310 13 -310 6 0 136 124 287 275 l274 274 18 158 c9 87 17 196 18 242
l0 84 74 77 c259 272 454 617 540 955 53 212 76 495 40 509 -26 10 -182 5
-284 -9z m260 -117 c0 -388 -183 -839 -489 -1207 -102 -123 -187 -203 -336
-316 -151 -114 -265 -184 -414 -257 l-123 -61 -279 279 c-248 247 -279 282
-274 304 22 87 177 351 319 540 293 392 756 685 1231 779 132 27 143 28 263
30 l102 1 0 -92z m-1540 -583 c0 -3 -19 -29 -43 -58 -96 -118 -307 -440 -307
-469 0 -4 -129 -8 -287 -8 l-288 0 250 250 c189 189 257 251 280 255 110 20
395 41 395 30z m-133 -997 l153 -152 0 -108 c0 -59 -3 -108 -8 -108 -4 0 -122
115 -262 255 l-254 254 104 4 c58 1 107 4 109 5 3 1 73 -66 158 -150z m1013
112 c0 -11 -9 -109 -20 -218 l-20 -197 -248 -247 c-136 -137 -250 -248 -254
-248 -5 0 -8 128 -8 284 l0 284 78 42 c100 54 276 172 377 254 44 35 83 65 88
65 4 1 7 -8 7 -19z"/>
<path d="M3475 5769 c-44 -25 -215 -205 -226 -236 -22 -67 -9 -86 190 -286
102 -104 198 -195 213 -203 34 -18 81 -18 116 0 15 8 71 59 125 114 l97 99 0
54 0 53 -203 204 c-196 196 -205 204 -248 208 -24 3 -53 -1 -64 -7z m282 -221
c202 -202 217 -223 189 -275 -20 -39 -175 -190 -206 -201 -51 -18 -80 2 -272
196 -238 239 -234 220 -85 369 149 149 130 154 374 -89z"/>
<path d="M11867 4742 c-15 -17 -17 -73 -17 -600 0 -569 0 -582 20 -602 20 -20
33 -20 570 -20 537 0 550 0 570 20 20 20 20 33 20 603 0 553 -1 585 -18 600
-17 15 -71 17 -574 17 -525 0 -556 -1 -571 -18z m1118 -597 l0 -580 -545 0
-545 0 -3 570 c-1 314 0 576 3 583 3 10 118 12 547 10 l543 -3 0 -580z"/>
<path d="M12408 4541 c11 -7 10 -10 -3 -15 -24 -9 -27 -8 -19 7 5 7 -2 5 -16
-4 -30 -19 -62 -100 -42 -106 6 -3 9 -9 6 -15 -10 -16 18 -58 48 -74 32 -17
41 -18 33 -4 -3 6 1 10 9 10 8 0 18 -5 22 -12 4 -6 3 -9 -2 -5 -5 3 -11 -22
-12 -56 -2 -34 -6 -65 -8 -69 -3 -5 2 -11 11 -14 13 -6 14 -8 3 -15 -10 -7
-10 -9 2 -9 10 0 11 -3 3 -8 -6 -4 -12 -32 -13 -62 -2 -73 -1 -82 8 -76 4 2
14 0 22 -6 12 -8 12 -9 -2 -4 -10 3 -18 0 -18 -5 0 -7 11 -9 25 -7 13 3 23 1
22 -5 -1 -6 8 -16 21 -22 12 -7 26 -16 30 -20 4 -5 1 -5 -5 -1 -8 4 -13 1 -13
-8 0 -9 4 -16 8 -16 4 0 8 -15 9 -32 2 -27 0 -29 -7 -13 -7 16 -9 17 -9 3 -2
-32 -51 -59 -101 -56 -25 2 -50 7 -56 10 -11 7 -17 138 -6 136 4 0 22 5 40 13
33 14 38 30 11 37 -11 3 -11 2 -1 -6 11 -7 10 -10 -3 -16 -23 -9 -27 -8 -19 5
4 7 -1 7 -16 -1 -34 -18 -69 -120 -40 -120 5 0 7 -7 4 -15 -3 -8 5 -25 19 -38
20 -21 32 -24 73 -21 43 3 45 2 14 -5 l-35 -8 39 -2 c31 -1 44 5 72 33 29 29
34 41 34 81 0 40 -5 52 -34 81 -19 19 -41 34 -50 34 -13 0 -16 12 -16 66 l0
65 150 -3 c135 -3 181 2 133 15 -14 4 -13 5 4 6 22 1 23 -2 20 -73 -2 -41 1
-72 5 -70 5 3 7 38 6 77 l-3 72 -157 3 -158 3 0 69 c0 66 1 70 25 76 40 10 72
56 73 106 1 24 -3 50 -9 58 -8 11 -9 9 -4 -9 5 -17 4 -22 -5 -16 -9 6 -11 4
-6 -4 12 -18 19 -79 8 -63 -7 11 -10 10 -16 -3 -3 -9 -4 -21 -1 -25 3 -5 1
-11 -5 -15 -5 -3 -10 -1 -10 5 0 7 -6 8 -19 0 -26 -14 -74 -13 -89 2 -9 9 -12
9 -12 -1 0 -7 -5 -9 -10 -6 -6 4 -7 11 -4 17 4 6 3 8 -3 5 -6 -4 -11 13 -12
42 -1 38 4 53 23 74 14 15 33 27 43 28 53 3 85 1 91 -6 4 -5 -2 -5 -12 -1 -19
7 -19 6 -1 -14 22 -25 22 -25 20 1 -2 31 -32 49 -79 49 -26 0 -36 -3 -28 -9z
m-28 -24 c0 -2 -10 -12 -21 -23 -22 -19 -22 -19 -8 4 12 19 29 30 29 19z m-43
-79 c-3 -8 -6 -5 -6 6 -1 11 2 17 5 13 3 -3 4 -12 1 -19z m156 -275 c-7 -2
-21 -2 -30 0 -10 3 -4 5 12 5 17 0 24 -2 18 -5z m22 -183 c3 -5 1 -10 -4 -10
-6 0 -11 5 -11 10 0 6 2 10 4 10 3 0 8 -4 11 -10z m10 -139 c-3 -6 -16 -16
-28 -22 -21 -11 -21 -10 2 15 23 25 40 29 26 7z"/>
<path d="M12107 4173 c-4 -3 -7 -39 -7 -79 0 -69 -1 -74 -24 -80 -89 -22 -99
-166 -14 -210 44 -23 106 -13 136 21 12 15 20 30 17 35 -3 5 -1 10 4 12 5 1 3
8 -4 15 -10 9 -14 8 -18 -8 -3 -10 -1 -19 4 -19 4 0 6 -7 3 -15 -4 -8 -10 -15
-16 -15 -5 0 -6 5 -2 12 4 7 3 8 -5 4 -6 -4 -9 -11 -6 -16 3 -5 1 -11 -5 -15
-5 -3 -10 -2 -10 3 0 6 -10 8 -22 4 -21 -5 -21 -6 -2 -13 18 -7 17 -8 -3 -8
-13 -1 -23 4 -23 9 0 6 -6 10 -13 10 -25 0 -73 44 -69 64 2 11 0 16 -7 12 -7
-5 -11 3 -10 21 0 25 1 26 10 8 8 -17 8 -15 4 8 -4 19 -2 26 7 25 7 -2 12 3
11 10 -2 6 0 11 5 10 17 -4 62 15 60 26 -2 6 2 12 7 13 6 1 9 -5 7 -13 -2 -8
1 -14 7 -14 5 0 17 -3 27 -7 13 -5 15 -3 9 8 -5 8 -5 11 1 6 5 -5 9 -14 9 -20
0 -7 8 -11 18 -11 9 1 17 -5 17 -13 0 -8 -4 -12 -9 -9 -5 4 -7 -4 -3 -16 5
-21 6 -21 12 -2 7 17 8 17 13 -6 2 -14 3 -10 1 9 -4 39 -24 64 -65 81 -28 12
-29 15 -29 76 l0 64 148 0 c126 0 149 2 149 15 0 13 -24 15 -157 15 -86 0
-160 -3 -163 -7z m-17 -173 c-8 -5 -19 -10 -25 -10 -5 0 -3 5 5 10 8 5 20 10
25 10 6 0 3 -5 -5 -10z m-5 -188 c11 -6 15 -12 8 -12 -7 0 -22 10 -35 23 -13
12 -17 17 -8 11 8 -6 24 -16 35 -22z"/>
<path d="M12689 3992 c-26 -23 -30 -32 -22 -46 9 -17 10 -17 17 -1 3 9 4 21 1
25 -3 5 -1 11 5 15 5 3 10 1 10 -6 0 -9 3 -9 14 0 19 16 66 17 94 2 27 -14 38
-35 46 -87 5 -33 2 -45 -12 -55 -15 -13 -16 -12 -3 4 21 27 9 29 -15 2 -14
-16 -18 -26 -10 -30 6 -3 -2 -3 -19 0 -22 4 -26 3 -15 -5 12 -8 11 -10 -8 -10
-15 0 -21 4 -16 11 5 8 -1 10 -19 7 -15 -3 -24 -2 -22 2 3 4 -4 15 -14 24 -15
14 -20 14 -25 4 -3 -7 -4 1 -1 17 4 24 3 27 -6 15 -8 -12 -10 -10 -5 10 3 14
1 32 -5 40 -8 11 -9 2 -6 -34 6 -61 37 -95 94 -103 53 -7 100 18 119 62 16 39
18 57 4 35 -8 -13 -10 -12 -10 3 0 9 5 17 10 17 6 0 10 5 10 11 0 5 -5 7 -11
3 -8 -4 -9 0 -4 15 4 14 -1 27 -17 44 -19 19 -32 22 -78 21 -36 -2 -49 0 -40
6 10 7 11 10 3 10 -7 0 -27 -13 -44 -28z m170 -45 c-2 -3 -15 10 -28 27 l-24
31 28 -27 c16 -15 27 -29 24 -31z m-159 -117 c0 -5 -2 -10 -4 -10 -3 0 -8 5
-11 10 -3 6 -1 10 4 10 6 0 11 -4 11 -10z"/>
<path d="M13227 4742 c-15 -17 -17 -73 -17 -600 0 -569 0 -582 20 -602 20 -20
33 -20 570 -20 537 0 550 0 570 20 20 20 20 33 20 603 0 553 -1 585 -18 600
-17 15 -71 17 -574 17 -525 0 -556 -1 -571 -18z m1118 -597 l0 -580 -545 0
-545 0 -3 570 c-1 314 0 576 3 583 3 10 118 12 547 10 l543 -3 0 -580z"/>
<path d="M13400 4138 l0 -268 400 0 400 0 0 24 c0 13 -6 27 -12 29 -10 4 -10
6 0 6 6 1 12 12 12 25 0 13 -6 27 -12 29 -10 4 -10 6 0 6 6 1 12 7 12 15 0 8
-6 17 -12 19 -10 4 -10 6 0 6 6 1 12 12 12 25 0 13 -6 27 -12 29 -10 4 -10 6
0 6 6 1 12 7 12 15 0 8 -6 17 -12 19 -10 4 -10 6 0 6 6 1 12 12 12 25 0 13 -6
27 -12 29 -10 4 -10 6 0 6 6 1 12 7 12 15 0 8 -6 17 -12 19 -10 4 -10 6 0 6 6
1 12 12 12 25 0 13 -6 27 -12 29 -10 4 -10 6 0 6 14 1 17 31 2 31 -5 0 -10 5
-10 11 0 5 4 8 9 5 5 -3 9 13 9 37 0 23 -2 36 -5 30 -3 -7 -9 -13 -14 -13 -6
0 -8 4 -5 8 2 4 -4 9 -15 9 -10 1 -19 -2 -19 -8 0 -5 3 -8 8 -7 14 3 42 -14
36 -23 -3 -5 -14 -4 -26 2 -16 9 -19 8 -13 -2 6 -9 3 -11 -9 -6 -12 5 -50 -13
-119 -56 -56 -35 -110 -68 -119 -73 -9 -5 -18 -13 -20 -19 -2 -5 -7 -10 -13
-10 -21 -1 -55 -17 -55 -26 0 -5 -5 -9 -11 -9 -5 0 -8 4 -5 9 4 5 -29 29 -71
54 -117 66 -127 71 -118 57 5 -8 3 -11 -6 -8 -8 3 -13 10 -12 17 2 6 -11 18
-28 27 -19 10 -28 11 -24 4 5 -8 3 -11 -6 -8 -8 3 -13 10 -12 16 2 6 -6 16
-17 22 -13 7 -20 7 -20 1 0 -6 -7 -8 -15 -5 -8 4 -15 10 -15 16 0 5 5 6 10 3
6 -3 10 -1 10 4 0 8 104 11 330 11 182 0 330 3 330 8 0 4 -153 7 -340 7 -188
0 -336 -1 -330 -3 6 -2 2 -11 -9 -19 -21 -14 -46 -9 -35 8 3 5 10 7 15 4 5 -4
9 -2 9 4 0 5 -9 9 -20 8 -19 -1 -20 -8 -20 -269z m98 208 c13 5 14 4 3 -4 -11
-8 -10 -12 8 -21 12 -7 26 -9 31 -6 5 3 18 1 27 -5 16 -9 15 -10 -4 -5 -13 4
-23 4 -23 1 0 -11 61 -37 72 -30 7 5 8 3 3 -6 -6 -10 -4 -12 9 -7 9 4 15 3 12
-1 -8 -13 163 -105 177 -94 7 5 19 9 27 9 8 0 84 41 168 91 84 51 155 92 157
92 3 0 5 -103 5 -230 l0 -230 -366 0 c-311 0 -368 2 -380 15 -9 8 -11 15 -5
15 8 0 11 68 11 211 0 115 -4 208 -8 205 -5 -3 -9 1 -9 9 0 12 5 12 34 0 18
-8 41 -12 51 -9z m631 10 c-13 -12 -222 -137 -224 -134 -4 4 207 136 219 137
5 1 7 -1 5 -3z m-402 -136 c37 -22 64 -40 60 -40 -8 0 -125 66 -136 76 -14 13
16 -1 76 -36z m64 -333 l354 -2 -366 -3 c-318 -2 -366 0 -366 13 0 10 4 12 12
5 7 -6 156 -11 366 -13z m399 8 c0 -9 -9 -15 -22 -14 -17 1 -19 2 -5 6 9 2 17
9 17 14 0 5 2 9 5 9 3 0 5 -7 5 -15z"/>
<path d="M2126 4239 c7 -12 -27 -40 -38 -33 -6 4 -8 2 -4 -4 3 -6 -1 -18 -10
-27 -9 -9 -14 -18 -12 -20 2 -3 25 17 51 43 37 38 43 48 28 48 -11 0 -18 -3
-15 -7z"/>
<path d="M2010 4134 c-9 -11 -10 -15 -2 -10 6 4 12 2 12 -3 0 -6 -4 -11 -10
-11 -5 0 -10 -5 -10 -12 0 -6 11 -1 25 12 14 13 25 28 25 34 0 6 -4 5 -9 -3
-6 -10 -10 -10 -13 -1 -2 8 -8 7 -18 -6z"/>
<path d="M1959 4084 c-17 -18 -19 -23 -6 -18 9 3 17 11 17 18 0 6 5 4 10 -4 8
-12 10 -11 10 8 0 28 -1 28 -31 -4z"/>
<path d="M1948 4049 c-10 -5 -18 -7 -18 -2 0 4 -34 -26 -75 -67 -40 -40 -72
-77 -69 -82 3 -4 0 -8 -6 -8 -6 0 -8 -5 -4 -11 9 -15 94 70 94 96 0 12 3 16 8
8 5 -7 22 4 51 33 45 46 48 50 19 33z m-35 -34 c-10 -13 -22 -25 -27 -25 -5 0
1 11 14 25 30 32 36 32 13 0z m-74 -78 c-2 -1 -15 -11 -29 -22 l-25 -20 19 23
c11 12 24 22 29 22 6 0 8 -1 6 -3z"/>
<path d="M2005 3790 c-162 -163 -236 -243 -229 -250 13 -13 489 464 479 479
-3 6 -7 11 -8 11 -1 0 -110 -108 -242 -240z m224 203 c-61 -67 -440 -443 -446
-443 -4 0 98 106 227 235 129 129 237 235 239 235 3 0 -6 -12 -20 -27z"/>
<path d="M2480 3909 c0 -5 -4 -8 -9 -5 -9 6 -26 -10 -33 -29 -1 -5 -6 -9 -10
-7 -5 1 -7 -4 -5 -10 1 -7 -4 -12 -10 -10 -7 1 -12 -4 -10 -10 1 -7 -4 -12
-10 -10 -7 1 -12 -4 -10 -10 1 -7 -4 -12 -11 -10 -6 1 -11 -4 -10 -10 2 -7 -3
-12 -10 -10 -8 1 -11 -2 -7 -9 8 -12 115 88 112 105 -1 5 4 10 12 11 13 0 30
25 17 25 -3 0 -6 -5 -6 -11z"/>
<path d="M14828 3350 l-3 -435 -7204 -3 c-3962 -1 -7207 -5 -7210 -8 -3 -3 -7
-395 -9 -871 -2 -702 -1 -868 10 -874 7 -5 3248 -9 7203 -9 6663 0 7191 -1
7202 -16 9 -13 12 -121 12 -427 0 -225 3 -412 6 -415 6 -7 1693 1675 1726
1720 l20 28 -303 301 c-167 166 -561 558 -875 872 l-573 572 -2 -435z m-11298
-1189 l0 -60 33 13 c38 16 74 12 99 -11 15 -13 18 -32 18 -115 0 -91 -1 -98
-20 -98 -18 0 -20 7 -20 89 0 107 -9 120 -70 102 l-40 -12 0 -89 c0 -83 -1
-90 -20 -90 -19 0 -20 7 -20 165 0 158 1 165 20 165 18 0 20 -7 20 -59z
m-1110 -96 l0 -135 75 0 c68 0 75 -2 75 -20 0 -19 -7 -20 -95 -20 l-95 0 0
155 c0 148 1 155 20 155 19 0 20 -7 20 -135z m5094 129 c9 -3 16 -14 16 -23 0
-15 -8 -17 -52 -14 -69 5 -99 -12 -117 -63 -18 -51 -8 -108 25 -141 23 -23 32
-25 90 -21 55 3 64 2 64 -13 0 -22 -20 -29 -83 -29 -96 0 -147 55 -147 157 0
62 27 113 71 135 34 18 103 24 133 12z m5316 -119 c0 -134 11 -155 78 -155 69
0 82 25 82 164 0 101 1 106 21 106 20 0 21 -4 17 -126 l-3 -126 -33 -29 c-27
-24 -41 -29 -83 -29 -45 0 -55 4 -85 34 l-34 34 0 121 c0 114 1 121 20 121 19
0 20 -7 20 -115z m-4059 88 c1 -10 1 -24 0 -30 -1 -8 11 -13 34 -13 28 0 35
-4 35 -20 0 -16 -7 -20 -34 -20 l-35 0 2 -72 2 -73 33 -5 c18 -3 33 -8 32 -12
0 -5 0 -13 0 -19 0 -6 -17 -9 -42 -7 -54 4 -68 28 -68 119 0 59 -2 67 -21 72
-26 7 -20 31 9 35 17 3 22 10 22 33 0 32 29 43 31 12z m-6028 -65 c13 -16 17
-39 17 -114 0 -87 -1 -94 -20 -94 -11 0 -20 5 -20 10 0 7 -6 7 -19 0 -30 -15
-82 -12 -103 7 -10 9 -18 30 -18 49 0 47 40 77 97 72 38 -3 43 -1 43 18 0 37
-24 48 -80 37 -45 -9 -50 -8 -50 8 0 12 10 21 28 25 15 3 32 7 37 8 25 7 72
-7 88 -26z m489 -1 c4 -7 8 -56 8 -109 0 -91 -1 -98 -20 -98 -19 0 -20 7 -20
94 0 86 -2 95 -20 101 -11 4 -36 1 -55 -5 l-35 -12 0 -89 c0 -82 -1 -89 -20
-89 -19 0 -20 7 -20 115 0 108 1 115 20 115 11 0 20 -5 20 -11 0 -5 5 -7 12
-3 39 24 112 19 130 -9z m4506 -1 c46 -45 46 -137 0 -183 -27 -27 -89 -34
-126 -14 -48 26 -67 114 -36 172 29 58 115 71 162 25z m257 1 c11 -15 15 -49
15 -114 0 -86 -1 -93 -20 -93 -18 0 -20 7 -20 89 0 102 -8 116 -64 105 -20 -3
-39 -11 -43 -18 -4 -6 -8 -47 -8 -91 0 -73 -2 -80 -20 -80 -19 0 -20 8 -23
108 -2 94 -1 108 15 114 9 4 19 1 21 -5 2 -7 9 -9 14 -5 19 11 72 19 96 15 12
-3 29 -14 37 -25z m237 6 c15 -13 18 -33 18 -115 0 -91 -1 -98 -20 -98 -18 0
-20 7 -20 89 0 107 -9 120 -70 102 l-40 -12 0 -89 c0 -83 -1 -90 -20 -90 -19
0 -20 7 -20 115 0 93 3 115 14 115 8 0 17 -4 21 -9 3 -6 18 -4 37 4 37 15 75
11 100 -12z m220 6 c22 -12 35 -60 29 -109 0 -6 -33 -10 -76 -10 -82 0 -89 -7
-49 -47 26 -25 56 -28 107 -8 13 5 17 2 17 -13 0 -24 -22 -33 -78 -34 -49 0
-78 15 -97 52 -57 110 43 225 147 169z m-5602 -78 c0 -100 10 -118 57 -106 48
12 53 22 53 111 0 77 2 84 20 84 19 0 20 -7 20 -115 0 -108 -1 -115 -20 -115
-11 0 -20 5 -20 10 0 7 -6 7 -20 0 -33 -17 -88 -15 -110 5 -17 16 -20 31 -20
117 0 91 1 98 20 98 18 0 20 -7 20 -89z m598 67 c3 -14 -4 -17 -43 -16 -60 1
-79 -17 -79 -77 0 -60 19 -78 79 -77 39 1 46 -2 43 -16 -5 -24 -88 -29 -122
-6 -54 35 -58 139 -9 188 23 23 34 27 77 24 39 -2 52 -7 54 -20z m5230 0 c3
-14 -4 -17 -42 -16 -62 1 -76 -13 -76 -77 0 -64 14 -78 76 -77 38 1 45 -2 42
-16 -2 -13 -15 -18 -54 -20 -43 -2 -54 1 -76 23 -53 53 -44 157 17 193 31 18
109 11 113 -10z m4520 16 c12 -4 22 -14 22 -23 0 -14 -10 -17 -52 -16 -45 0
-53 -3 -53 -18 0 -12 18 -27 55 -45 32 -16 56 -35 58 -45 6 -33 -7 -63 -33
-75 -48 -22 -125 -11 -125 17 0 13 10 16 57 16 47 0 58 3 61 17 2 12 -8 23
-35 35 -83 38 -102 75 -58 118 24 25 57 31 103 19z m205 -5 c29 -13 47 -48 47
-89 l0 -30 -75 0 c-73 0 -75 -1 -75 -25 0 -33 32 -48 92 -43 27 3 50 2 53 -1
11 -18 -18 -35 -69 -39 -51 -4 -58 -2 -84 25 -94 93 -4 255 111 202z"/>
<path d="M2627 1983 c-13 -12 -7 -42 11 -51 10 -5 31 -5 50 0 25 7 32 14 32
33 0 23 -4 25 -43 25 -24 0 -47 -3 -50 -7z"/>
<path d="M7625 2065 c-40 -39 -28 -126 19 -139 55 -15 86 13 86 79 0 78 -56
110 -105 60z"/>
<path d="M8358 2078 c-8 -7 -18 -21 -21 -30 -6 -16 1 -18 53 -18 33 0 60 3 60
8 0 4 -7 18 -16 30 -17 24 -52 29 -76 10z"/>
<path d="M13312 2068 c-7 -7 -12 -20 -12 -30 0 -15 9 -18 55 -18 57 0 63 6 45
41 -12 22 -68 27 -88 7z"/>
<path d="M2323 3758 c1 -7 -4 -12 -11 -10 -8 1 -11 -2 -7 -8 5 -8 11 -8 21 1
7 6 11 15 8 20 -8 13 -14 11 -11 -3z"/>
<path d="M2283 3725 c4 -5 -12 -28 -35 -52 -23 -24 -40 -43 -37 -43 3 0 24 20
48 44 32 33 39 46 29 51 -7 5 -10 4 -5 0z"/>
<path d="M2179 3603 c-13 -16 -12 -17 4 -4 16 13 21 21 13 21 -2 0 -10 -8 -17
-17z"/>
<path d="M2139 3563 c-13 -16 -12 -17 4 -4 9 7 17 15 17 17 0 8 -8 3 -21 -13z"/>
<path d="M2100 3556 c0 -2 7 -9 15 -16 13 -11 14 -10 9 4 -5 14 -24 23 -24 12z"/>
</g>
</svg>
