<?xml version="1.0" standalone="no"?>
<!DOCTYPE svg PUBLIC "-//W3C//DTD SVG 20010904//EN"
 "http://www.w3.org/TR/2001/REC-SVG-20010904/DTD/svg10.dtd">
<svg version="1.0" xmlns="http://www.w3.org/2000/svg"
 width="1084.000000pt" height="1086.000000pt" viewBox="0 0 1084.000000 1086.000000"
 preserveAspectRatio="xMidYMid meet">

<g transform="translate(0.000000,1086.000000) scale(0.100000,-0.100000)"
fill="#000000" stroke="none">
<path d="M3812 10582 c-294 -105 -385 -464 -179 -699 25 -28 29 -37 17 -41 -8
-3 -55 -26 -104 -51 -196 -100 -349 -294 -406 -515 -26 -102 -38 -299 -20
-321 11 -13 107 -15 830 -15 723 0 819 2 830 15 18 22 6 219 -20 321 -61 238
-224 433 -448 536 -37 17 -69 33 -71 34 -2 2 13 22 34 45 124 138 139 356 35
517 -45 70 -106 122 -186 159 -79 37 -230 44 -312 15z m306 -92 c73 -39 124
-92 161 -170 22 -47 26 -68 26 -145 0 -82 -3 -97 -33 -157 -36 -74 -95 -132
-170 -169 -40 -20 -62 -24 -152 -24 -92 0 -112 3 -160 26 -144 68 -227 228
-200 381 15 83 52 149 117 208 77 71 135 91 253 87 86 -3 101 -6 158 -37z
m-328 -722 c79 -32 230 -31 317 1 74 26 89 23 218 -42 61 -32 101 -62 170
-132 141 -140 205 -285 221 -495 l7 -90 -773 0 -773 0 7 90 c16 210 80 355
221 495 88 89 169 142 272 180 51 18 50 18 113 -7z"/>
<path d="M6005 10582 c-151 -56 -263 -192 -284 -344 -18 -131 12 -237 97 -345
l40 -50 -37 -12 c-111 -39 -257 -149 -336 -252 -62 -82 -128 -224 -150 -319
-23 -103 -32 -284 -15 -305 11 -13 107 -15 820 -15 714 0 809 2 820 15 17 21
7 217 -16 311 -19 80 -78 212 -124 279 -77 112 -236 240 -348 280 l-50 18 42
51 c80 99 117 228 98 344 -24 141 -113 262 -239 324 -60 29 -77 33 -167 36
-79 2 -112 -2 -151 -16z m286 -84 c75 -34 134 -95 172 -176 27 -57 31 -78 31
-147 0 -69 -4 -90 -31 -147 -37 -78 -92 -137 -165 -174 -75 -39 -208 -45 -290
-14 -75 28 -155 101 -193 177 -27 52 -30 68 -30 153 0 82 4 103 26 150 31 67
79 123 132 157 69 44 106 53 202 50 73 -2 101 -7 146 -29z m-306 -730 c85 -31
225 -31 314 1 l63 23 69 -27 c182 -71 332 -220 410 -405 31 -74 59 -214 59
-296 l0 -54 -761 0 -762 0 6 89 c17 259 127 457 336 601 35 24 178 90 196 90
6 0 38 -10 70 -22z"/>
<path d="M5070 8190 c-256 -31 -472 -139 -650 -326 -87 -91 -129 -151 -184
-259 -158 -315 -148 -695 27 -1003 134 -234 371 -421 628 -496 72 -20 234 -46
294 -46 13 0 15 -44 15 -370 l0 -370 -930 0 -930 0 0 -285 0 -285 -30 0 c-16
0 -30 -4 -30 -10 0 -5 14 -10 30 -10 l30 0 0 -307 -1 -308 -62 68 c-46 51 -68
68 -88 67 -31 0 -59 -28 -59 -58 0 -20 101 -144 224 -277 l46 -50 46 50 c25
27 86 95 135 152 93 108 105 136 71 166 -36 33 -63 22 -129 -50 l-62 -68 -1
543 0 542 1730 0 1730 0 0 -225 0 -225 -35 0 c-19 0 -35 -4 -35 -10 0 -5 16
-10 35 -10 l35 0 0 -307 -1 -308 -62 68 c-46 51 -68 68 -88 67 -31 0 -59 -28
-59 -58 0 -20 101 -144 224 -277 l46 -50 46 50 c25 27 86 95 135 152 93 108
105 136 71 166 -36 33 -63 22 -129 -50 l-62 -68 -1 603 0 602 -860 0 -860 0 0
375 0 374 38 7 c370 63 685 315 822 658 51 126 73 243 73 391 1 289 -94 530
-292 738 -180 188 -399 298 -654 326 -106 12 -141 12 -237 1z m362 -104 c349
-89 622 -360 715 -712 22 -85 26 -120 26 -244 0 -123 -4 -159 -25 -240 -95
-356 -362 -623 -717 -717 -82 -22 -118 -26 -241 -26 -123 0 -159 4 -240 25
-355 94 -624 362 -717 714 -35 135 -37 335 -5 467 46 185 129 335 262 468 159
162 350 258 572 289 98 14 264 3 370 -24z"/>
<path d="M4817 7843 c-13 -12 -8 -428 5 -441 8 -8 60 -12 170 -12 l158 0 0
-65 c0 -45 -4 -65 -12 -66 -7 0 -78 -2 -158 -3 -80 0 -151 -5 -157 -9 -9 -6
-13 -39 -13 -107 l0 -99 -82 -3 -83 -3 -3 -102 -3 -103 -49 0 c-75 0 -80 -10
-80 -150 0 -153 -3 -150 141 -150 61 0 119 5 130 10 17 10 19 22 19 138 0 139
-5 152 -52 152 -28 0 -28 0 -28 65 l0 65 110 0 110 0 0 -65 0 -65 -29 0 c-53
0 -61 -19 -61 -148 0 -64 5 -124 10 -132 12 -19 227 -28 259 -10 20 10 21 19
21 138 0 86 -4 132 -12 140 -7 7 -34 12 -60 12 l-48 0 0 79 c0 44 -4 91 -10
105 -9 24 -15 26 -65 26 l-55 0 0 70 0 70 300 0 300 0 0 -70 0 -70 -55 0 c-69
0 -75 -10 -75 -124 l0 -86 -48 0 c-26 0 -53 -5 -60 -12 -8 -8 -12 -54 -12
-140 0 -116 2 -128 19 -138 11 -5 69 -10 130 -10 145 0 141 -4 141 155 0 113
-2 125 -19 135 -11 5 -31 10 -45 10 -25 0 -26 2 -26 65 l0 65 110 0 110 0 0
-65 c0 -65 0 -65 -29 -65 -47 0 -53 -17 -53 -151 0 -153 -5 -149 148 -149 147
0 144 -4 144 150 0 140 -5 150 -80 150 l-49 0 -3 103 -3 102 -82 3 -83 3 0 99
c0 68 -4 101 -12 107 -7 4 -80 9 -163 10 -82 0 -153 2 -157 2 -5 1 -8 30 -8
66 l0 65 159 0 c122 0 161 3 170 14 8 9 11 78 9 227 l-3 214 -371 3 c-204 1
-373 -1 -377 -5z m673 -220 l0 -153 -300 0 -300 0 0 153 0 154 300 0 300 0 0
-154z m-770 -943 l0 -71 -62 3 -63 3 -3 68 -3 67 66 0 65 0 0 -70z m341 58 c1
-18 1 -89 0 -110 -1 -15 -11 -18 -66 -18 l-65 0 0 70 0 70 65 0 c45 0 65 -4
66 -12z m389 -58 l0 -70 -65 0 c-45 0 -65 4 -66 13 -1 19 -1 79 0 105 1 20 6
22 66 22 l65 0 0 -70z m340 0 l0 -71 -67 3 -68 3 -3 54 c-5 79 -2 81 73 81
l65 0 0 -70z"/>
<path d="M7020 7442 c0 -178 3 -192 47 -192 28 0 31 26 3 33 -19 5 -20 14 -20
166 0 136 -2 161 -15 161 -13 0 -15 -25 -15 -168z"/>
<path d="M9140 7546 l0 -64 -37 13 c-46 16 -90 5 -120 -30 -19 -21 -23 -38
-23 -91 0 -59 3 -68 29 -95 32 -31 84 -39 123 -18 15 8 22 8 28 -1 5 -7 15
-10 24 -7 14 6 16 30 16 182 0 168 -1 175 -20 175 -18 0 -20 -7 -20 -64z m-25
-88 c23 -10 25 -16 25 -78 0 -75 -8 -88 -62 -96 -55 -9 -83 21 -83 89 0 86 46
119 120 85z"/>
<path d="M6760 7420 l0 -170 98 0 c103 0 114 3 105 26 -4 10 -26 14 -84 14
l-79 0 0 60 0 60 70 0 c56 0 70 3 70 15 0 12 -14 15 -70 15 l-70 0 0 55 0 55
79 0 c58 0 80 4 84 14 9 23 -2 26 -105 26 l-98 0 0 -170z"/>
<path d="M7754 7575 c-4 -9 -2 -21 4 -27 15 -15 44 -1 40 19 -4 23 -36 29 -44
8z"/>
<path d="M8210 7420 l0 -170 104 0 c94 0 104 2 102 18 -2 14 -16 17 -84 20
l-82 3 0 149 c0 143 -1 150 -20 150 -19 0 -20 -7 -20 -170z"/>
<path d="M7607 7563 c-4 -3 -7 -19 -7 -34 0 -20 -6 -28 -25 -33 -29 -7 -24
-26 6 -26 17 0 19 -8 19 -93 0 -78 3 -97 18 -110 22 -20 73 -22 90 -5 20 20
13 27 -25 25 l-38 -2 -3 93 -3 92 36 0 c24 0 35 4 35 15 0 10 -11 15 -35 15
-33 0 -35 2 -35 35 0 33 -16 46 -33 28z"/>
<path d="M7205 7503 c-54 -10 -65 -14 -65 -27 0 -12 12 -13 55 -9 64 7 85 -5
85 -48 0 -28 -1 -29 -40 -23 -49 8 -94 -9 -109 -42 -16 -35 -14 -48 10 -78 23
-29 73 -35 112 -15 16 9 22 9 25 0 2 -6 12 -11 23 -11 17 0 19 8 19 89 0 109
-12 149 -48 157 -15 3 -31 7 -37 8 -5 1 -19 1 -30 -1z m53 -139 c16 -5 22 -14
22 -34 0 -22 -6 -30 -31 -39 -62 -22 -97 -4 -85 43 8 31 45 43 94 30z"/>
<path d="M7427 7499 c-40 -11 -57 -28 -57 -56 0 -41 17 -59 75 -83 45 -18 55
-27 55 -46 0 -29 -32 -39 -95 -30 -36 6 -45 4 -45 -7 0 -18 30 -27 91 -27 35
0 51 5 67 23 43 45 24 86 -52 117 -58 23 -74 43 -54 67 9 12 26 14 65 10 42
-4 53 -2 53 9 0 7 -12 16 -27 20 -16 3 -32 7 -38 8 -5 2 -23 -1 -38 -5z"/>
<path d="M8544 7504 c-5 -1 -22 -5 -37 -8 -78 -18 -92 -196 -18 -236 11 -5 41
-10 66 -10 38 0 52 5 75 28 50 50 52 147 4 195 -22 22 -65 37 -90 31z m65 -60
c48 -61 14 -164 -55 -164 -38 0 -73 28 -75 60 -4 67 0 89 21 110 30 30 83 27
109 -6z"/>
<path d="M8805 7504 c-6 -1 -27 -5 -47 -9 -22 -3 -38 -12 -38 -20 0 -10 14
-12 62 -8 66 7 88 -6 88 -52 0 -19 -6 -21 -61 -20 -52 0 -63 -3 -80 -24 -25
-30 -24 -76 1 -101 23 -23 79 -27 113 -9 16 9 22 9 25 0 2 -6 10 -11 18 -11
11 0 14 22 14 108 0 91 -3 111 -17 124 -18 15 -59 27 -78 22z m43 -140 c36
-10 29 -51 -12 -71 -49 -23 -86 -12 -86 27 0 42 38 60 98 44z"/>
<path d="M7760 7375 c0 -104 2 -125 15 -125 13 0 15 21 15 125 0 104 -2 125
-15 125 -13 0 -15 -21 -15 -125z"/>
<path d="M7901 7486 c-33 -18 -50 -53 -51 -102 0 -88 38 -134 114 -134 44 0
66 9 66 26 0 10 -10 12 -42 8 -35 -5 -48 -2 -70 16 -24 18 -28 29 -28 74 0 75
15 91 84 91 45 0 56 3 54 15 -4 20 -94 25 -127 6z"/>
<path d="M7510 6863 c0 -179 3 -193 47 -193 27 0 32 27 6 32 -16 3 -18 19 -18
163 -1 143 -2 160 -18 163 -16 3 -17 -11 -17 -165z"/>
<path d="M6984 6841 l0 -171 68 0 c76 0 131 18 147 48 18 33 13 84 -10 108
-17 18 -19 26 -10 42 20 37 13 86 -15 113 -22 20 -38 24 -103 27 l-77 4 0
-171z m161 105 c11 -17 13 -30 6 -48 -11 -30 -29 -38 -87 -38 l-44 0 0 55 0
55 55 0 c46 0 57 -4 70 -24z m3 -132 c25 -17 31 -71 10 -92 -7 -7 -39 -12 -75
-12 l-63 0 0 60 0 60 53 0 c31 0 61 -6 75 -16z"/>
<path d="M8364 6995 c-4 -9 -2 -21 4 -27 15 -15 44 -1 40 19 -4 23 -36 29 -44
8z"/>
<path d="M7335 6922 c-52 -8 -65 -13 -65 -26 0 -12 12 -13 56 -9 63 7 84 -7
84 -54 0 -21 -3 -23 -40 -17 -70 11 -120 -22 -120 -80 0 -55 75 -85 133 -55
16 9 22 9 25 0 2 -6 10 -11 18 -11 11 0 14 22 14 108 0 91 -3 111 -17 124 -20
17 -57 26 -88 20z m53 -138 c36 -10 29 -51 -12 -71 -49 -23 -86 -12 -86 27 0
42 38 60 98 44z"/>
<path d="M7695 6923 c-53 -9 -65 -14 -65 -27 0 -12 12 -13 55 -9 64 7 85 -5
85 -48 0 -28 -1 -28 -48 -22 -41 5 -52 2 -75 -18 -37 -34 -43 -69 -17 -102 24
-30 73 -37 113 -16 16 9 22 9 25 0 2 -6 13 -11 24 -11 19 0 20 5 16 110 -2 63
-8 114 -14 120 -14 14 -72 27 -99 23z m53 -139 c16 -5 22 -14 22 -35 0 -24 -5
-30 -41 -40 -29 -9 -46 -10 -57 -2 -26 16 -26 49 0 67 24 17 40 19 76 10z"/>
<path d="M7975 6919 c-16 -3 -38 -10 -47 -14 -11 -4 -18 -3 -18 4 0 6 -9 11
-20 11 -19 0 -20 -7 -20 -125 0 -118 1 -125 20 -125 19 0 20 7 20 99 l0 99 29
12 c16 6 44 10 62 8 l34 -3 3 -107 c2 -100 4 -108 22 -108 19 0 20 7 20 103 0
136 -21 165 -105 146z"/>
<path d="M8550 6914 c-28 -8 -46 -10 -48 -4 -2 6 -10 10 -18 10 -11 0 -14 -24
-14 -125 0 -104 2 -125 15 -125 17 0 16 -2 20 100 3 100 1 95 30 108 33 15 78
15 93 0 8 -8 12 -47 12 -110 0 -93 1 -98 21 -98 21 0 21 4 17 110 -2 60 -8
114 -14 120 -22 22 -69 27 -114 14z"/>
<path d="M8799 6916 c-60 -19 -86 -106 -55 -181 8 -18 23 -38 34 -44 26 -14
87 -14 113 -1 16 9 19 7 19 -14 0 -57 -57 -84 -132 -63 -22 6 -28 4 -28 -8 0
-44 125 -44 169 -1 25 26 26 30 29 171 3 124 1 145 -12 145 -8 0 -18 -5 -21
-10 -4 -7 -11 -7 -18 -2 -20 16 -63 19 -98 8z m92 -36 c16 -9 19 -22 19 -79 0
-63 -2 -69 -25 -79 -69 -32 -115 0 -115 78 0 37 5 55 20 70 22 22 70 26 101
10z"/>
<path d="M8177 6900 c-55 -43 -56 -161 -2 -207 38 -34 145 -31 145 3 0 10 -12
12 -48 7 -38 -4 -52 -1 -72 15 -21 17 -25 29 -25 77 0 48 4 60 25 77 19 15 35
19 68 15 36 -4 43 -2 40 12 -5 27 -97 27 -131 1z"/>
<path d="M8370 6795 c0 -104 2 -125 15 -125 13 0 15 21 15 125 0 104 -2 125
-15 125 -13 0 -15 -21 -15 -125z"/>
<path d="M2120 5931 c-1 -163 0 -170 20 -181 23 -12 50 -7 50 9 0 5 -9 11 -20
14 -22 6 -22 2 -21 200 0 101 -3 127 -14 127 -11 0 -14 -33 -15 -169z"/>
<path d="M341 6058 c-57 -146 -90 -236 -93 -248 -2 -8 -6 -17 -9 -20 -4 -3
-10 -16 -14 -28 -6 -20 -4 -23 11 -20 11 2 25 21 35 48 l17 45 77 0 77 0 18
-45 c10 -25 25 -46 34 -48 9 -2 16 -1 16 1 0 5 -63 172 -103 272 -25 65 -51
82 -66 43z m53 -97 c36 -90 36 -91 -33 -91 l-59 0 30 80 c17 44 32 79 33 78 2
-2 15 -32 29 -67z"/>
<path d="M1414 6056 c-21 -17 -28 -33 -28 -59 0 -45 22 -70 82 -92 74 -28 92
-42 92 -75 0 -47 -36 -64 -115 -56 -55 6 -64 4 -59 -8 8 -20 62 -30 122 -23
54 6 92 41 92 86 0 41 -21 62 -101 101 -61 29 -75 40 -77 61 -5 46 22 62 95
56 49 -5 63 -3 63 7 0 17 -31 26 -92 26 -35 0 -54 -6 -74 -24z"/>
<path d="M2237 6066 c-8 -20 20 -43 35 -28 14 14 3 42 -16 42 -7 0 -16 -6 -19
-14z"/>
<path d="M838 6028 c-2 -23 -10 -36 -25 -43 -28 -12 -30 -25 -3 -25 19 0 20
-7 20 -90 0 -77 3 -93 20 -110 29 -29 100 -25 100 5 0 8 -13 12 -37 11 l-38
-1 -3 93 -3 92 36 0 c24 0 35 4 35 15 0 10 -11 15 -35 15 -33 0 -35 2 -35 35
0 46 -27 49 -32 3z"/>
<path d="M550 5885 c0 -92 3 -108 20 -125 23 -23 75 -26 116 -8 22 10 28 10
32 0 2 -6 9 -12 16 -12 10 0 13 30 13 125 0 115 -1 125 -18 125 -17 0 -19 -9
-19 -100 0 -99 0 -101 -26 -110 -42 -16 -82 -12 -94 9 -5 11 -10 60 -10 110 0
74 -3 91 -15 91 -12 0 -15 -18 -15 -105z"/>
<path d="M1027 5979 c-45 -26 -64 -140 -30 -189 28 -40 45 -49 95 -50 35 0 54
6 73 23 52 44 52 160 0 205 -28 24 -104 30 -138 11z m109 -27 c20 -13 34 -50
34 -87 0 -37 -14 -74 -34 -87 -6 -4 -27 -8 -47 -8 -52 0 -74 28 -74 95 0 67
22 95 74 95 20 0 41 -4 47 -8z"/>
<path d="M1703 5980 c-36 -15 -54 -53 -54 -114 0 -65 11 -91 51 -111 46 -24
120 -18 120 10 0 9 -13 11 -44 8 -59 -7 -96 26 -96 86 0 80 30 108 105 99 28
-3 35 -1 33 11 -4 19 -80 26 -115 11z"/>
<path d="M1884 5975 c-22 -17 -18 -18 58 -15 60 2 78 -12 78 -60 0 -20 -4 -21
-39 -15 -53 9 -108 -15 -117 -51 -17 -68 32 -107 109 -87 25 7 43 8 45 2 2 -5
10 -9 18 -9 11 0 14 21 14 103 0 133 -8 147 -89 147 -35 0 -65 -6 -77 -15z
m114 -121 c16 -5 22 -14 22 -34 0 -22 -6 -30 -31 -39 -48 -16 -77 -13 -89 9
-25 47 29 82 98 64z"/>
<path d="M2240 5865 c0 -104 2 -125 15 -125 13 0 15 21 15 125 0 104 -2 125
-15 125 -13 0 -15 -21 -15 -125z"/>
<path d="M2340 5865 c0 -118 1 -125 20 -125 19 0 20 7 20 100 0 99 0 101 26
110 37 14 94 12 100 -3 3 -8 6 -56 7 -108 2 -76 5 -94 17 -94 12 0 15 18 16
96 2 123 -7 143 -65 147 -24 2 -57 -2 -74 -9 -24 -10 -32 -10 -35 -1 -2 7 -10
12 -18 12 -11 0 -14 -24 -14 -125z"/>
<path d="M2645 5967 c-51 -43 -50 -151 1 -195 21 -19 36 -23 68 -20 23 3 49 8
60 13 16 7 18 5 11 -26 -4 -19 -13 -41 -21 -49 -16 -16 -85 -20 -121 -7 -18 6
-23 5 -23 -7 0 -21 69 -40 112 -32 19 3 46 18 59 32 23 24 24 33 27 170 3 126
1 144 -12 144 -9 0 -16 -5 -16 -10 0 -7 -6 -7 -19 0 -35 18 -98 12 -126 -13z
m120 -19 c23 -10 25 -16 25 -78 0 -62 -2 -68 -25 -78 -71 -32 -125 4 -125 84
0 73 55 104 125 72z"/>
<path d="M972 5390 c-53 -50 -51 -156 5 -199 28 -23 82 -28 114 -11 16 9 19 7
19 -15 0 -61 -49 -87 -124 -66 -33 8 -37 8 -34 -7 2 -11 19 -20 51 -26 62 -12
112 10 131 57 19 46 20 287 1 287 -7 0 -15 -5 -17 -11 -3 -9 -9 -9 -25 0 -35
18 -96 14 -121 -9z m119 -20 c16 -9 19 -22 19 -80 0 -58 -3 -71 -19 -80 -31
-16 -79 -12 -101 10 -25 25 -27 105 -4 138 17 24 70 30 105 12z"/>
<path d="M1221 5285 c0 -96 3 -125 13 -125 9 0 13 24 14 91 1 51 7 98 13 106
7 7 29 16 50 19 23 4 39 12 39 20 0 18 -38 18 -72 0 -24 -13 -28 -13 -28 0 0
8 -7 14 -15 14 -12 0 -14 -22 -14 -125z"/>
<path d="M1411 5385 c-55 -47 -51 -160 6 -205 40 -31 105 -27 145 9 31 28 33
33 33 96 0 63 -2 68 -33 96 -44 39 -107 41 -151 4z m123 -18 c37 -27 37 -137
0 -164 -27 -20 -81 -16 -104 7 -15 15 -20 33 -20 75 0 42 5 60 20 75 23 23 77
27 104 7z"/>
<path d="M1655 5305 c2 -86 5 -109 20 -125 21 -23 83 -27 118 -9 16 9 22 9 25
0 2 -6 10 -11 18 -11 11 0 14 24 14 125 0 104 -2 125 -15 125 -12 0 -15 -18
-15 -98 0 -96 -1 -99 -25 -110 -38 -17 -92 -15 -99 4 -3 9 -6 58 -6 110 0 84
-2 94 -18 94 -16 0 -18 -10 -17 -105z"/>
<path d="M1920 5240 c0 -163 1 -170 20 -170 18 0 20 7 20 56 0 50 2 55 18 49
63 -27 122 -11 146 40 31 64 13 160 -33 185 -26 13 -87 13 -114 -1 -16 -9 -22
-9 -25 0 -2 6 -10 11 -18 11 -11 0 -14 -30 -14 -170z m166 119 c29 -32 26
-125 -5 -150 -27 -22 -59 -24 -96 -7 -23 10 -25 16 -25 84 0 82 8 93 71 94 24
0 42 -7 55 -21z"/>
<path d="M1600 4738 c0 -4 5 -8 10 -8 7 0 10 -162 10 -465 l0 -465 470 0 470
0 0 473 0 473 -480 0 c-264 0 -480 -3 -480 -8z m560 -200 c0 -14 -22 -19 -35
-8 -13 11 -15 -1 -15 -89 0 -94 -1 -101 -20 -101 -19 0 -20 7 -20 100 0 97 -1
100 -19 90 -14 -7 -22 -7 -26 1 -7 10 13 39 50 70 18 16 21 15 52 -20 18 -20
33 -39 33 -43z m-170 -233 l34 -35 -37 -37 c-28 -29 -39 -35 -48 -26 -9 9 -9
16 1 28 11 13 1 15 -89 15 -94 0 -101 1 -101 20 0 19 7 20 101 20 88 0 100 2
89 15 -11 14 -6 35 9 35 4 0 22 -16 41 -35z m255 25 c4 -6 1 -17 -5 -25 -11
-13 1 -15 89 -15 94 0 101 -1 101 -20 0 -19 -7 -20 -101 -20 -90 0 -100 -2
-89 -15 10 -12 10 -19 1 -28 -9 -9 -20 -3 -48 26 l-37 37 34 35 c36 37 45 41
55 25z m-135 -231 c0 -89 2 -100 15 -89 12 10 18 10 30 0 12 -10 8 -18 -27
-52 l-41 -39 -33 32 c-19 18 -34 39 -34 45 0 20 19 27 35 14 13 -11 15 1 15
89 0 94 1 101 20 101 19 0 20 -7 20 -101z"/>
<path d="M2650 4740 c0 -6 27 -10 60 -10 33 0 60 4 60 10 0 6 -27 10 -60 10
-33 0 -60 -4 -60 -10z"/>
<path d="M2860 4740 c0 -6 27 -10 60 -10 33 0 60 4 60 10 0 6 -27 10 -60 10
-33 0 -60 -4 -60 -10z"/>
<path d="M3070 4740 c0 -6 27 -10 60 -10 33 0 60 4 60 10 0 6 -27 10 -60 10
-33 0 -60 -4 -60 -10z"/>
<path d="M3490 4740 c0 -6 27 -10 60 -10 33 0 60 4 60 10 0 6 -27 10 -60 10
-33 0 -60 -4 -60 -10z"/>
<path d="M3700 4740 c0 -6 27 -10 60 -10 33 0 60 4 60 10 0 6 -27 10 -60 10
-33 0 -60 -4 -60 -10z"/>
<path d="M3910 4740 c0 -6 27 -10 60 -10 33 0 60 4 60 10 0 6 -27 10 -60 10
-33 0 -60 -4 -60 -10z"/>
<path d="M4120 4740 c0 -6 27 -10 60 -10 33 0 60 4 60 10 0 6 -27 10 -60 10
-33 0 -60 -4 -60 -10z"/>
<path d="M4330 4740 c0 -6 27 -10 60 -10 33 0 60 4 60 10 0 6 -27 10 -60 10
-33 0 -60 -4 -60 -10z"/>
<path d="M4540 4740 c0 -6 27 -10 60 -10 33 0 60 4 60 10 0 6 -27 10 -60 10
-33 0 -60 -4 -60 -10z"/>
<path d="M4750 4740 c0 -6 27 -10 60 -10 33 0 60 4 60 10 0 6 -27 10 -60 10
-33 0 -60 -4 -60 -10z"/>
<path d="M4960 4740 c0 -6 27 -10 60 -10 33 0 60 4 60 10 0 6 -27 10 -60 10
-33 0 -60 -4 -60 -10z"/>
<path d="M5170 4740 c0 -6 27 -10 60 -10 33 0 60 4 60 10 0 6 -27 10 -60 10
-33 0 -60 -4 -60 -10z"/>
<path d="M5380 4740 c0 -6 27 -10 60 -10 33 0 60 4 60 10 0 6 -27 10 -60 10
-33 0 -60 -4 -60 -10z"/>
<path d="M5590 4740 c0 -6 27 -10 60 -10 33 0 60 4 60 10 0 6 -27 10 -60 10
-33 0 -60 -4 -60 -10z"/>
<path d="M5800 4740 c0 -6 27 -10 60 -10 33 0 60 4 60 10 0 6 -27 10 -60 10
-33 0 -60 -4 -60 -10z"/>
<path d="M6010 4740 c0 -6 27 -10 60 -10 33 0 60 4 60 10 0 6 -27 10 -60 10
-33 0 -60 -4 -60 -10z"/>
<path d="M6220 4740 c0 -6 27 -10 60 -10 33 0 60 4 60 10 0 6 -27 10 -60 10
-33 0 -60 -4 -60 -10z"/>
<path d="M6430 4740 c0 -6 27 -10 60 -10 33 0 60 4 60 10 0 6 -27 10 -60 10
-33 0 -60 -4 -60 -10z"/>
<path d="M6640 4740 c0 -6 27 -10 60 -10 33 0 60 4 60 10 0 6 -27 10 -60 10
-33 0 -60 -4 -60 -10z"/>
<path d="M7060 4740 c0 -6 27 -10 60 -10 33 0 60 4 60 10 0 6 -27 10 -60 10
-33 0 -60 -4 -60 -10z"/>
<path d="M7270 4740 c0 -6 27 -10 60 -10 33 0 60 4 60 10 0 6 -27 10 -60 10
-33 0 -60 -4 -60 -10z"/>
<path d="M7480 4740 c0 -6 27 -10 60 -10 33 0 60 4 60 10 0 6 -27 10 -60 10
-33 0 -60 -4 -60 -10z"/>
<path d="M7690 4740 c0 -6 27 -10 60 -10 33 0 60 4 60 10 0 6 -27 10 -60 10
-33 0 -60 -4 -60 -10z"/>
<path d="M7900 4740 c0 -6 27 -10 60 -10 33 0 60 4 60 10 0 6 -27 10 -60 10
-33 0 -60 -4 -60 -10z"/>
<path d="M8110 4740 c0 -6 27 -10 60 -10 33 0 60 4 60 10 0 6 -27 10 -60 10
-33 0 -60 -4 -60 -10z"/>
<path d="M8320 4740 c0 -6 27 -10 60 -10 33 0 60 4 60 10 0 6 -27 10 -60 10
-33 0 -60 -4 -60 -10z"/>
<path d="M8530 4740 c0 -6 27 -10 60 -10 33 0 60 4 60 10 0 6 -27 10 -60 10
-33 0 -60 -4 -60 -10z"/>
<path d="M8744 4734 c3 -9 6 -33 6 -55 0 -21 5 -39 10 -39 6 0 10 25 10 55 0
44 -3 55 -16 55 -11 0 -14 -5 -10 -16z"/>
<path d="M1590 4660 c0 -33 4 -60 10 -60 6 0 10 27 10 60 0 33 -4 60 -10 60
-6 0 -10 -27 -10 -60z"/>
<path d="M8750 4490 c0 -33 4 -60 10 -60 6 0 10 27 10 60 0 33 -4 60 -10 60
-6 0 -10 -27 -10 -60z"/>
<path d="M1590 4450 c0 -33 4 -60 10 -60 6 0 10 27 10 60 0 33 -4 60 -10 60
-6 0 -10 -27 -10 -60z"/>
<path d="M8750 4280 c0 -33 4 -60 10 -60 6 0 10 27 10 60 0 33 -4 60 -10 60
-6 0 -10 -27 -10 -60z"/>
<path d="M1590 4240 c0 -33 4 -60 10 -60 6 0 10 27 10 60 0 33 -4 60 -10 60
-6 0 -10 -27 -10 -60z"/>
<path d="M8750 4070 c0 -33 4 -60 10 -60 6 0 10 27 10 60 0 33 -4 60 -10 60
-6 0 -10 -27 -10 -60z"/>
<path d="M1590 4030 c0 -33 4 -60 10 -60 6 0 10 27 10 60 0 33 -4 60 -10 60
-6 0 -10 -27 -10 -60z"/>
<path d="M8750 3860 c0 -33 4 -60 10 -60 6 0 10 27 10 60 0 33 -4 60 -10 60
-6 0 -10 -27 -10 -60z"/>
<path d="M1590 3820 c0 -33 4 -60 10 -60 6 0 10 27 10 60 0 33 -4 60 -10 60
-6 0 -10 -27 -10 -60z"/>
<path d="M8750 3650 c0 -33 4 -60 10 -60 6 0 10 27 10 60 0 33 -4 60 -10 60
-6 0 -10 -27 -10 -60z"/>
<path d="M1590 3610 c0 -33 4 -60 10 -60 6 0 10 27 10 60 0 33 -4 60 -10 60
-6 0 -10 -27 -10 -60z"/>
<path d="M2900 3535 l0 -85 -105 0 -105 0 0 -110 0 -110 -85 0 -85 0 0 -30 0
-30 85 0 85 0 0 -85 0 -85 -85 0 -85 0 0 -30 0 -30 85 0 85 0 0 -85 0 -85 -85
0 -85 0 0 -30 0 -30 85 0 85 0 0 -85 0 -85 -85 0 -85 0 0 -30 0 -30 85 0 85 0
0 -85 0 -85 -85 0 -85 0 0 -30 0 -30 85 0 85 0 0 -110 0 -110 105 0 105 0 0
-85 0 -85 30 0 30 0 0 85 0 85 85 0 85 0 0 -85 0 -85 30 0 30 0 0 85 0 85 85
0 85 0 0 -85 0 -85 30 0 30 0 0 85 0 85 85 0 85 0 0 -85 0 -85 33 0 32 0 -1
85 -1 85 84 0 83 0 0 -85 0 -85 35 0 35 0 0 85 0 85 110 0 110 0 0 110 0 110
85 0 85 0 0 30 0 30 -85 0 -85 0 0 85 0 85 85 0 85 0 0 30 0 30 -85 0 -85 0 0
85 0 85 85 0 85 0 0 30 0 30 -85 0 -85 0 0 85 0 85 85 0 85 0 0 30 0 30 -85 0
-85 0 0 85 0 85 85 0 85 0 0 30 0 30 -85 0 -85 0 0 110 0 110 -110 0 -110 0 0
85 0 85 -35 0 -35 0 0 -85 0 -86 -82 3 -83 3 0 80 -1 80 -32 3 -32 3 0 -85 0
-86 -85 0 -85 0 0 85 0 85 -30 0 -30 0 0 -85 0 -85 -85 0 -85 0 0 85 0 85 -30
0 -30 0 0 -85 0 -85 -85 0 -85 0 0 85 0 85 -30 0 -30 0 0 -85z m1140 -795 l0
-640 -640 0 -640 0 0 640 0 640 640 0 640 0 0 -640z"/>
<path d="M6420 3535 l0 -85 -100 0 -99 0 -3 -107 -3 -108 -87 -3 -88 -3 0 -29
0 -30 90 0 91 0 -3 -82 -3 -83 -87 -3 -88 -3 0 -29 0 -29 88 -3 87 -3 0 -80 0
-80 -87 -3 -88 -3 0 -29 0 -29 88 -3 87 -3 3 -82 3 -83 -91 0 -90 0 0 -30 0
-29 88 -3 87 -3 0 -80 0 -80 -87 -3 -88 -3 0 -29 0 -29 88 -3 87 -3 3 -107 3
-108 99 0 100 0 0 -85 0 -85 35 0 35 0 0 85 0 85 80 0 80 0 0 -85 0 -85 35 0
35 0 0 85 0 85 85 0 85 0 0 -85 0 -85 30 0 30 0 0 85 0 85 85 0 85 0 1 -47 c1
-27 0 -65 -1 -85 -1 -37 -1 -38 34 -38 l36 0 0 85 0 85 85 0 85 0 0 -85 0 -85
30 0 30 0 0 85 0 85 110 0 109 0 3 108 3 107 88 3 87 3 0 29 0 30 -90 0 -91 0
3 83 3 82 88 3 87 3 0 29 0 30 -90 0 -90 0 0 85 0 85 90 0 90 0 0 30 0 30 -90
0 -90 0 0 85 0 85 90 0 90 0 0 30 0 29 -87 3 -88 3 -3 83 -3 82 91 0 90 0 0
30 0 29 -87 3 -88 3 -3 108 -3 107 -109 0 -110 0 0 85 0 85 -30 0 -30 0 0 -85
0 -85 -85 0 -85 0 0 85 0 85 -36 0 c-34 0 -35 -2 -34 -32 1 -18 2 -57 1 -85
l-1 -53 -85 0 -85 0 0 85 0 85 -30 0 -30 0 0 -85 0 -85 -85 0 -85 0 0 85 0 85
-35 0 -35 0 0 -85 0 -85 -80 0 -80 0 0 85 0 85 -35 0 -35 0 0 -85z m1160 -795
l0 -640 -650 0 -650 0 0 640 0 640 650 0 650 0 0 -640z"/>
<path d="M8750 3440 c0 -33 4 -60 10 -60 6 0 10 27 10 60 0 33 -4 60 -10 60
-6 0 -10 -27 -10 -60z"/>
<path d="M1590 3400 c0 -33 4 -60 10 -60 6 0 10 27 10 60 0 33 -4 60 -10 60
-6 0 -10 -27 -10 -60z"/>
<path d="M8750 3230 c0 -33 4 -60 10 -60 6 0 10 27 10 60 0 33 -4 60 -10 60
-6 0 -10 -27 -10 -60z"/>
<path d="M1590 3190 c0 -33 4 -60 10 -60 6 0 10 27 10 60 0 33 -4 60 -10 60
-6 0 -10 -27 -10 -60z"/>
<path d="M8750 3020 c0 -33 4 -60 10 -60 6 0 10 27 10 60 0 33 -4 60 -10 60
-6 0 -10 -27 -10 -60z"/>
<path d="M1590 2980 c0 -33 4 -60 10 -60 6 0 10 27 10 60 0 33 -4 60 -10 60
-6 0 -10 -27 -10 -60z"/>
<path d="M8750 2810 c0 -33 4 -60 10 -60 6 0 10 27 10 60 0 33 -4 60 -10 60
-6 0 -10 -27 -10 -60z"/>
<path d="M1590 2770 c0 -33 4 -60 10 -60 6 0 10 27 10 60 0 33 -4 60 -10 60
-6 0 -10 -27 -10 -60z"/>
<path d="M8750 2600 c0 -33 4 -60 10 -60 6 0 10 27 10 60 0 33 -4 60 -10 60
-6 0 -10 -27 -10 -60z"/>
<path d="M1590 2560 c0 -33 4 -60 10 -60 6 0 10 27 10 60 0 33 -4 60 -10 60
-6 0 -10 -27 -10 -60z"/>
<path d="M8750 2390 c0 -33 4 -60 10 -60 6 0 10 27 10 60 0 33 -4 60 -10 60
-6 0 -10 -27 -10 -60z"/>
<path d="M1590 2350 c0 -33 4 -60 10 -60 6 0 10 27 10 60 0 33 -4 60 -10 60
-6 0 -10 -27 -10 -60z"/>
<path d="M8750 2180 c0 -33 4 -60 10 -60 6 0 10 27 10 60 0 33 -4 60 -10 60
-6 0 -10 -27 -10 -60z"/>
<path d="M1590 2140 c0 -33 4 -60 10 -60 6 0 10 27 10 60 0 33 -4 60 -10 60
-6 0 -10 -27 -10 -60z"/>
<path d="M8750 1970 c0 -33 4 -60 10 -60 6 0 10 27 10 60 0 33 -4 60 -10 60
-6 0 -10 -27 -10 -60z"/>
<path d="M1590 1930 c0 -33 4 -60 10 -60 6 0 10 27 10 60 0 33 -4 60 -10 60
-6 0 -10 -27 -10 -60z"/>
<path d="M8750 1760 c0 -33 4 -60 10 -60 6 0 10 27 10 60 0 33 -4 60 -10 60
-6 0 -10 -27 -10 -60z"/>
<path d="M1590 1720 c0 -33 4 -60 10 -60 6 0 10 27 10 60 0 33 -4 60 -10 60
-6 0 -10 -27 -10 -60z"/>
<path d="M8750 1550 c0 -33 4 -60 10 -60 6 0 10 27 10 60 0 33 -4 60 -10 60
-6 0 -10 -27 -10 -60z"/>
<path d="M1590 1510 c0 -33 4 -60 10 -60 6 0 10 27 10 60 0 33 -4 60 -10 60
-6 0 -10 -27 -10 -60z"/>
<path d="M5388 1393 c-29 -11 -38 -21 -38 -38 l0 -23 49 21 c47 19 51 19 75 3
28 -18 34 -52 15 -89 -7 -12 -43 -56 -80 -99 -38 -42 -69 -83 -69 -92 0 -14
16 -16 110 -16 103 0 110 1 110 20 0 18 -7 20 -81 20 l-81 0 66 71 c76 83 96
130 76 180 -9 20 -26 37 -46 45 -42 17 -59 17 -106 -3z"/>
<path d="M2998 1333 c-14 -38 -44 -114 -66 -170 l-40 -103 23 0 c19 0 26 9 40
50 l17 50 72 0 72 0 18 -50 c15 -41 22 -50 42 -50 l24 0 -19 48 c-10 26 -40
102 -66 170 -41 105 -51 122 -70 122 -18 0 -27 -12 -47 -67z m76 -65 l25 -68
-54 0 -55 0 25 66 c14 37 25 69 25 72 0 13 10 -8 34 -70z"/>
<path d="M4790 1230 l0 -170 105 0 c98 0 105 1 105 20 0 18 -7 20 -85 20 l-86
0 3 58 3 57 73 3 c63 2 73 5 70 20 -3 14 -17 18 -76 20 l-72 3 0 49 0 50 85 0
c78 0 85 2 85 20 0 19 -7 20 -105 20 l-105 0 0 -170z"/>
<path d="M5113 1380 c-47 -28 -67 -73 -67 -151 0 -112 55 -172 157 -172 68 0
97 10 97 33 0 16 -6 18 -60 13 -104 -10 -150 28 -150 122 0 101 43 141 145
133 47 -4 55 -2 55 13 0 22 -20 29 -88 29 -39 0 -67 -6 -89 -20z"/>
<path d="M5744 1385 c-4 -9 -2 -21 4 -27 16 -16 47 -5 47 17 0 26 -42 34 -51
10z"/>
<path d="M8750 1340 c0 -33 4 -60 10 -60 6 0 10 27 10 60 0 33 -4 60 -10 60
-6 0 -10 -27 -10 -60z"/>
<path d="M6348 1348 c-2 -25 -8 -34 -25 -36 -30 -4 -32 -42 -3 -42 18 0 20 -7
20 -83 0 -108 13 -129 78 -125 35 2 48 7 50 21 3 14 -4 17 -37 17 l-41 0 0 85
0 85 35 0 c28 0 35 4 35 20 0 16 -7 20 -35 20 -33 0 -35 2 -35 35 0 28 -4 35
-19 35 -15 0 -21 -8 -23 -32z"/>
<path d="M1590 1300 c0 -33 4 -60 10 -60 6 0 10 27 10 60 0 33 -4 60 -10 60
-6 0 -10 -27 -10 -60z"/>
<path d="M3305 1310 c-11 -4 -32 -5 -47 -3 l-28 6 0 -127 c0 -119 1 -126 20
-126 19 0 20 7 20 100 l0 99 39 12 c67 20 71 14 71 -106 l0 -105 25 0 c25 0
25 0 25 99 l0 99 35 12 c19 6 44 9 55 5 18 -6 20 -15 20 -111 l0 -104 25 0
c25 0 25 0 25 98 0 58 -5 107 -13 122 -19 38 -59 48 -114 28 -41 -15 -49 -15
-67 -2 -22 15 -60 17 -91 4z"/>
<path d="M3680 1312 c-15 -5 -26 -17 -28 -29 -3 -20 -1 -21 30 -12 66 18 108
2 108 -42 0 -16 -7 -19 -55 -19 -46 0 -60 -4 -80 -25 -67 -66 2 -153 96 -121
21 8 39 10 39 5 0 -5 9 -9 20 -9 19 0 20 7 20 108 0 95 -2 111 -20 127 -21 19
-91 28 -130 17z m108 -169 c-5 -46 -97 -67 -112 -27 -13 33 12 54 65 54 49 0
50 -1 47 -27z"/>
<path d="M4158 1305 c-38 -21 -58 -64 -58 -122 0 -65 27 -108 79 -124 49 -15
86 -6 121 29 50 50 48 153 -4 201 -31 30 -100 37 -138 16z m106 -46 c22 -17
26 -28 26 -70 0 -40 -5 -55 -26 -76 -20 -20 -31 -24 -57 -19 -49 10 -62 29
-62 92 0 47 4 59 24 75 30 25 62 24 95 -2z"/>
<path d="M4471 1309 c-13 -5 -39 -7 -57 -3 l-34 6 0 -126 0 -126 25 0 c25 0
25 0 25 99 l0 99 36 12 c45 15 80 6 88 -22 3 -13 6 -60 6 -105 0 -76 2 -83 20
-83 19 0 20 7 20 105 0 99 -2 107 -25 130 -25 26 -62 31 -104 14z"/>
<path d="M5923 1305 c-18 -8 -33 -10 -33 -5 0 6 -9 10 -20 10 -19 0 -20 -7
-20 -125 0 -118 1 -125 20 -125 18 0 20 8 22 98 l3 97 43 15 c68 24 76 13 80
-109 3 -99 3 -102 25 -99 20 3 22 8 22 89 0 48 -3 101 -8 118 -12 49 -70 64
-134 36z"/>
<path d="M6155 1309 c-75 -43 -56 -102 48 -147 51 -22 56 -32 31 -56 -18 -18
-45 -20 -92 -7 -31 9 -33 8 -30 -11 6 -44 110 -48 154 -7 47 44 22 98 -55 124
-53 17 -69 38 -49 62 9 12 25 14 65 9 43 -5 53 -3 53 8 0 8 -4 17 -9 20 -20
13 -97 16 -116 5z"/>
<path d="M6533 1309 c-22 -6 -33 -16 -33 -28 0 -16 5 -17 51 -7 59 12 82 2 87
-38 3 -25 2 -26 -47 -26 -38 0 -56 -6 -77 -23 -52 -45 -23 -131 43 -129 105 3
122 5 125 15 6 18 2 171 -5 199 -11 43 -71 58 -144 37z m107 -167 c0 -24 -6
-30 -37 -40 -44 -14 -73 -1 -73 33 0 28 11 33 68 34 40 1 42 -1 42 -27z"/>
<path d="M6813 1305 c-18 -8 -33 -10 -33 -5 0 6 -9 10 -20 10 -19 0 -20 -7
-20 -125 l0 -125 25 0 c25 0 25 0 25 99 l0 99 36 12 c19 7 46 9 60 6 24 -6 24
-8 24 -111 l0 -105 26 0 26 0 -4 111 c-3 102 -5 112 -27 130 -27 22 -73 24
-118 4z"/>
<path d="M7073 1305 c-47 -20 -66 -56 -65 -122 0 -39 6 -64 20 -82 40 -54 153
-63 160 -12 2 15 0 21 -7 16 -6 -3 -30 -7 -53 -7 -54 -1 -78 27 -78 87 0 65
25 90 89 88 43 -1 51 2 51 17 0 12 -10 20 -31 24 -42 8 -49 7 -86 -9z"/>
<path d="M7283 1304 c-33 -17 -63 -73 -63 -119 0 -48 30 -103 65 -119 58 -28
145 -12 145 26 0 14 -5 18 -16 14 -75 -29 -144 -8 -144 44 0 17 9 20 83 22
l82 3 3 32 c9 87 -72 138 -155 97z m89 -36 c9 -7 19 -23 23 -35 6 -22 4 -23
-59 -23 -73 0 -84 12 -46 50 23 23 59 26 82 8z"/>
<path d="M7512 1310 c-29 -12 -46 -51 -38 -85 5 -21 20 -33 66 -53 49 -20 60
-30 60 -48 0 -30 -36 -40 -90 -26 -43 11 -60 1 -40 -23 16 -19 89 -29 122 -16
38 14 61 52 52 86 -5 22 -20 34 -70 56 -35 16 -64 35 -64 43 0 27 28 39 75 32
40 -7 45 -5 45 12 0 28 -69 41 -118 22z"/>
<path d="M3880 1290 c0 -17 8 -19 64 -22 l64 -3 -69 -85 c-94 -117 -93 -120
31 -120 93 0 100 1 100 20 0 17 -8 19 -70 22 l-70 3 70 87 c38 48 70 94 70
103 0 12 -16 15 -95 15 -88 0 -95 -2 -95 -20z"/>
<path d="M5750 1185 c0 -118 1 -125 20 -125 19 0 20 7 20 125 0 118 -1 125
-20 125 -19 0 -20 -7 -20 -125z"/>
<path d="M8750 1130 c0 -33 4 -60 10 -60 6 0 10 27 10 60 0 33 -4 60 -10 60
-6 0 -10 -27 -10 -60z"/>
<path d="M1590 1090 c0 -33 4 -60 10 -60 6 0 10 27 10 60 0 33 -4 60 -10 60
-6 0 -10 -27 -10 -60z"/>
<path d="M8750 920 c0 -33 4 -60 10 -60 6 0 10 27 10 60 0 33 -4 60 -10 60 -6
0 -10 -27 -10 -60z"/>
<path d="M1590 880 c0 -33 4 -60 10 -60 6 0 10 27 10 60 0 33 -4 60 -10 60 -6
0 -10 -27 -10 -60z"/>
<path d="M8750 740 c0 -23 -4 -30 -20 -30 -11 0 -20 -4 -20 -10 0 -5 14 -10
30 -10 28 0 30 2 30 40 0 22 -4 40 -10 40 -5 0 -10 -13 -10 -30z"/>
<path d="M1590 710 c0 -17 7 -20 50 -20 28 0 50 5 50 10 0 6 -18 10 -40 10
-22 0 -40 5 -40 10 0 6 -4 10 -10 10 -5 0 -10 -9 -10 -20z"/>
<path d="M1780 700 c0 -6 27 -10 60 -10 33 0 60 4 60 10 0 6 -27 10 -60 10
-33 0 -60 -4 -60 -10z"/>
<path d="M1990 700 c0 -6 27 -10 60 -10 33 0 60 4 60 10 0 6 -27 10 -60 10
-33 0 -60 -4 -60 -10z"/>
<path d="M2200 700 c0 -6 27 -10 60 -10 33 0 60 4 60 10 0 6 -27 10 -60 10
-33 0 -60 -4 -60 -10z"/>
<path d="M2410 700 c0 -6 27 -10 60 -10 33 0 60 4 60 10 0 6 -27 10 -60 10
-33 0 -60 -4 -60 -10z"/>
<path d="M2620 700 c0 -6 27 -10 60 -10 33 0 60 4 60 10 0 6 -27 10 -60 10
-33 0 -60 -4 -60 -10z"/>
<path d="M2830 700 c0 -6 27 -10 60 -10 33 0 60 4 60 10 0 6 -27 10 -60 10
-33 0 -60 -4 -60 -10z"/>
<path d="M3040 700 c0 -6 27 -10 60 -10 33 0 60 4 60 10 0 6 -27 10 -60 10
-33 0 -60 -4 -60 -10z"/>
<path d="M3250 700 c0 -6 27 -10 60 -10 33 0 60 4 60 10 0 6 -27 10 -60 10
-33 0 -60 -4 -60 -10z"/>
<path d="M3460 700 c0 -6 27 -10 60 -10 33 0 60 4 60 10 0 6 -27 10 -60 10
-33 0 -60 -4 -60 -10z"/>
<path d="M3670 700 c0 -6 27 -10 60 -10 33 0 60 4 60 10 0 6 -27 10 -60 10
-33 0 -60 -4 -60 -10z"/>
<path d="M3880 700 c0 -6 27 -10 60 -10 33 0 60 4 60 10 0 6 -27 10 -60 10
-33 0 -60 -4 -60 -10z"/>
<path d="M4090 700 c0 -6 27 -10 60 -10 33 0 60 4 60 10 0 6 -27 10 -60 10
-33 0 -60 -4 -60 -10z"/>
<path d="M4300 700 c0 -6 27 -10 60 -10 33 0 60 4 60 10 0 6 -27 10 -60 10
-33 0 -60 -4 -60 -10z"/>
<path d="M4510 700 c0 -6 27 -10 60 -10 33 0 60 4 60 10 0 6 -27 10 -60 10
-33 0 -60 -4 -60 -10z"/>
<path d="M4720 700 c0 -6 27 -10 60 -10 33 0 60 4 60 10 0 6 -27 10 -60 10
-33 0 -60 -4 -60 -10z"/>
<path d="M4930 700 c0 -6 27 -10 60 -10 33 0 60 4 60 10 0 6 -27 10 -60 10
-33 0 -60 -4 -60 -10z"/>
<path d="M5140 700 c0 -6 27 -10 60 -10 33 0 60 4 60 10 0 6 -27 10 -60 10
-33 0 -60 -4 -60 -10z"/>
<path d="M5350 700 c0 -6 27 -10 60 -10 33 0 60 4 60 10 0 6 -27 10 -60 10
-33 0 -60 -4 -60 -10z"/>
<path d="M5560 700 c0 -6 27 -10 60 -10 33 0 60 4 60 10 0 6 -27 10 -60 10
-33 0 -60 -4 -60 -10z"/>
<path d="M5770 700 c0 -6 27 -10 60 -10 33 0 60 4 60 10 0 6 -27 10 -60 10
-33 0 -60 -4 -60 -10z"/>
<path d="M5980 700 c0 -6 27 -10 60 -10 33 0 60 4 60 10 0 6 -27 10 -60 10
-33 0 -60 -4 -60 -10z"/>
<path d="M6190 700 c0 -6 27 -10 60 -10 33 0 60 4 60 10 0 6 -27 10 -60 10
-33 0 -60 -4 -60 -10z"/>
<path d="M6400 700 c0 -6 27 -10 60 -10 33 0 60 4 60 10 0 6 -27 10 -60 10
-33 0 -60 -4 -60 -10z"/>
<path d="M6610 700 c0 -6 27 -10 60 -10 33 0 60 4 60 10 0 6 -27 10 -60 10
-33 0 -60 -4 -60 -10z"/>
<path d="M6820 700 c0 -6 27 -10 60 -10 33 0 60 4 60 10 0 6 -27 10 -60 10
-33 0 -60 -4 -60 -10z"/>
<path d="M7030 700 c0 -6 27 -10 60 -10 33 0 60 4 60 10 0 6 -27 10 -60 10
-33 0 -60 -4 -60 -10z"/>
<path d="M7240 700 c0 -6 27 -10 60 -10 33 0 60 4 60 10 0 6 -27 10 -60 10
-33 0 -60 -4 -60 -10z"/>
<path d="M7450 700 c0 -6 27 -10 60 -10 33 0 60 4 60 10 0 6 -27 10 -60 10
-33 0 -60 -4 -60 -10z"/>
<path d="M7660 700 c0 -6 27 -10 60 -10 33 0 60 4 60 10 0 6 -27 10 -60 10
-33 0 -60 -4 -60 -10z"/>
<path d="M7870 700 c0 -6 27 -10 60 -10 33 0 60 4 60 10 0 6 -27 10 -60 10
-33 0 -60 -4 -60 -10z"/>
<path d="M8080 700 c0 -6 27 -10 60 -10 33 0 60 4 60 10 0 6 -27 10 -60 10
-33 0 -60 -4 -60 -10z"/>
<path d="M8290 700 c0 -6 27 -10 60 -10 33 0 60 4 60 10 0 6 -27 10 -60 10
-33 0 -60 -4 -60 -10z"/>
<path d="M8500 700 c0 -6 27 -10 60 -10 33 0 60 4 60 10 0 6 -27 10 -60 10
-33 0 -60 -4 -60 -10z"/>
</g>
</svg>
