<?xml version="1.0" standalone="no"?>
<!DOCTYPE svg PUBLIC "-//W3C//DTD SVG 20010904//EN"
 "http://www.w3.org/TR/2001/REC-SVG-20010904/DTD/svg10.dtd">
<svg version="1.0" xmlns="http://www.w3.org/2000/svg"
 width="995.000000pt" height="389.000000pt" viewBox="0 0 995.000000 389.000000"
 preserveAspectRatio="xMidYMid meet">

<g transform="translate(0.000000,389.000000) scale(0.100000,-0.100000)"
fill="#000000" stroke="none">
<path d="M780 3391 c0 -223 2 -231 66 -231 26 0 34 4 34 18 0 9 -10 22 -22 27
-23 10 -23 14 -26 198 l-2 187 -25 0 -25 0 0 -199z"/>
<path d="M542 3556 c-83 -27 -121 -89 -122 -194 0 -135 62 -204 184 -205 81 0
106 8 106 37 0 22 -2 23 -50 14 -62 -11 -118 3 -151 38 -22 23 -24 34 -24 114
0 80 2 91 24 114 33 35 82 49 141 41 46 -6 50 -5 50 13 0 12 -4 23 -8 26 -22
13 -111 14 -150 2z"/>
<path d="M944 3556 c-11 -28 4 -48 33 -44 22 2 28 8 28 28 0 20 -6 26 -28 28
-18 2 -29 -2 -33 -12z"/>
<path d="M8005 3552 c-39 -25 -53 -42 -55 -72 -6 -75 11 -97 114 -140 38 -17
73 -35 78 -42 14 -23 8 -54 -15 -76 -26 -24 -86 -29 -145 -13 -30 9 -32 8 -32
-14 0 -27 13 -33 83 -41 106 -12 185 47 174 129 -7 52 -27 72 -108 103 -38 14
-76 33 -84 41 -21 21 -19 49 6 74 19 19 29 21 91 16 67 -6 69 -5 66 16 -5 38
-120 51 -173 19z"/>
<path d="M1775 3528 c-2 -7 -5 -26 -7 -43 -2 -24 -8 -31 -30 -33 -38 -4 -40
-42 -3 -42 25 0 25 0 25 -99 0 -85 3 -102 21 -125 19 -24 27 -27 73 -24 39 2
52 7 54 21 3 13 -3 17 -26 17 -60 0 -62 3 -62 111 l0 99 40 0 c33 0 40 3 40
20 0 17 -7 20 -40 20 l-40 0 0 45 c0 39 -3 45 -20 45 -11 0 -23 -6 -25 -12z"/>
<path d="M1151 3447 c-40 -20 -64 -62 -69 -120 -8 -102 29 -160 112 -172 57
-9 126 10 126 34 0 15 -7 17 -55 13 -78 -6 -104 3 -121 43 -8 19 -14 39 -14
45 0 6 38 10 100 10 l100 0 0 40 c0 52 -18 88 -51 106 -34 17 -96 18 -128 1z
m113 -49 c9 -12 16 -33 16 -45 0 -22 -4 -23 -76 -23 -65 0 -75 2 -70 16 3 9 6
20 6 25 0 5 9 18 20 29 28 28 84 27 104 -2z"/>
<path d="M1488 3439 c-32 -16 -38 -17 -38 -4 0 9 -9 15 -25 15 l-25 0 0 -145
0 -145 30 0 30 0 0 116 0 115 35 15 c88 36 105 16 105 -132 l0 -114 30 0 30 0
0 109 c0 116 -11 166 -40 181 -30 16 -92 11 -132 -11z"/>
<path d="M8339 3445 c-37 -20 -59 -58 -66 -114 -11 -94 34 -165 112 -177 53
-7 128 14 133 37 3 14 -6 16 -68 11 -64 -4 -73 -3 -95 18 -15 14 -25 35 -25
52 l0 28 96 0 96 0 -4 57 c-4 46 -10 61 -32 80 -32 27 -105 31 -147 8z m113
-42 c10 -9 18 -29 18 -45 l0 -28 -70 0 c-65 0 -70 1 -70 22 0 55 81 89 122 51z"/>
<path d="M8715 3452 c-11 -2 -29 -11 -40 -18 -25 -18 -35 -18 -35 1 0 9 -9 15
-25 15 l-25 0 0 -145 0 -145 30 0 30 0 0 111 0 110 37 15 c20 9 44 13 55 11
14 -4 18 0 18 18 0 25 -14 34 -45 27z"/>
<path d="M9170 3447 c-13 -7 -35 -28 -47 -46 -45 -66 -24 -198 35 -230 57 -31
182 -19 182 17 0 15 -9 17 -68 14 -78 -5 -108 12 -118 66 l-6 32 96 0 c108 0
113 3 101 67 -10 55 -54 93 -107 93 -24 0 -54 -6 -68 -13z m103 -39 c9 -7 20
-28 23 -45 l7 -33 -77 0 c-70 0 -76 2 -76 20 0 51 81 89 123 58z"/>
<path d="M9537 3449 c-16 -4 -35 -13 -44 -20 -12 -11 -17 -10 -24 4 -6 9 -19
17 -29 17 -19 0 -20 -8 -20 -145 l0 -145 25 0 25 0 0 111 0 110 37 15 c20 9
44 13 55 11 14 -4 18 0 18 18 0 30 -8 34 -43 24z"/>
<path d="M950 3305 l0 -145 25 0 25 0 0 145 0 145 -25 0 -25 0 0 -145z"/>
<path d="M8783 3438 c3 -7 28 -73 57 -145 48 -125 53 -133 78 -133 25 0 30 8
83 145 l57 145 -28 0 c-26 0 -30 -6 -58 -87 -17 -49 -34 -100 -37 -115 -4 -16
-10 -28 -14 -28 -3 0 -24 52 -45 115 -38 112 -40 115 -69 115 -19 0 -27 -4
-24 -12z"/>
<path d="M150 2267 c-84 -44 -80 -5 -80 -745 0 -718 -2 -698 61 -743 l34 -24
995 0 c943 0 997 1 1025 19 17 10 39 30 50 44 20 26 20 43 20 704 l0 677 -35
36 c-19 19 -50 40 -70 45 -22 6 -396 10 -996 10 l-961 0 -43 -23z m2004 -86
c15 -12 16 -72 16 -662 l0 -648 -22 -15 c-20 -14 -130 -16 -985 -16 -951 0
-963 0 -983 20 -20 20 -20 31 -18 667 3 644 3 647 24 658 14 7 341 10 986 10
801 0 968 -2 982 -14z"/>
<path d="M262 2098 c-17 -17 -17 -1139 0 -1156 17 -17 1789 -17 1806 0 17 17
17 1139 0 1156 -17 17 -1789 17 -1806 0z m1728 -578 l0 -500 -825 0 -825 0 0
500 0 500 825 0 825 0 0 -500z"/>
<path d="M8136 2244 c-14 -14 -16 -125 -16 -1079 0 -954 2 -1065 16 -1079 14
-14 84 -16 622 -16 365 0 613 4 622 10 13 8 15 140 15 1085 0 945 -2 1077 -15
1085 -9 6 -257 10 -622 10 -538 0 -608 -2 -622 -16z m1174 -1079 l0 -1005
-550 0 -550 0 0 1005 0 1005 550 0 550 0 0 -1005z"/>
<path d="M8347 2033 c-3 -5 -4 -24 -3 -43 l1 -35 410 -3 c273 -1 411 1 415 8
4 6 6 25 5 43 l-2 32 -411 3 c-226 1 -413 -1 -415 -5z"/>
<path d="M8345 1808 c-2 -7 -3 -26 -2 -43 l2 -30 415 0 414 0 -1 30 c0 17 -1
36 -2 43 -1 9 -90 12 -411 12 -320 0 -412 -3 -415 -12z"/>
<path d="M8349 1598 c-1 -2 -3 -20 -4 -41 -1 -31 2 -38 19 -43 12 -2 199 -3
416 -2 l394 3 -1 30 c0 17 -1 36 -2 43 -1 9 -90 12 -411 12 -225 0 -411 -1
-411 -2z"/>
<path d="M8345 1380 c-1 -3 -2 -23 -1 -45 l1 -40 413 -3 c226 -1 412 1 413 5
4 44 4 83 0 84 -19 4 -823 3 -826 -1z"/>
<path d="M6250 1827 l0 -97 -1470 0 -1470 0 0 -195 0 -195 1470 0 1469 0 3
-95 3 -95 193 192 192 193 -195 195 -195 195 0 -98z"/>
<path d="M3502 868 l-192 -193 195 -195 195 -195 0 98 0 97 1470 0 1470 0 0
195 0 195 -1470 0 -1469 0 -3 95 -3 95 -193 -192z"/>
<path d="M149 641 c-66 -41 -79 -80 -79 -237 0 -83 5 -136 14 -157 17 -42 66
-83 114 -97 52 -14 1883 -14 1935 1 51 14 104 63 118 107 6 22 9 93 7 172 -3
122 -5 138 -26 168 -13 18 -41 41 -62 52 -38 20 -63 20 -1008 20 l-968 0 -45
-29z m1995 -82 c26 -20 26 -22 26 -148 0 -139 -5 -156 -55 -169 -23 -6 -1807
-9 -1893 -3 -10 0 -28 10 -40 21 -20 19 -22 30 -22 146 0 119 1 126 25 149
l24 25 954 0 c950 0 954 0 981 -21z"/>
<path d="M1482 478 c-7 -7 -12 -39 -12 -73 0 -34 5 -66 12 -73 17 -17 569 -17
586 0 12 12 17 114 6 142 -5 14 -41 16 -293 16 -210 0 -290 -3 -299 -12z"/>
</g>
</svg>
