<?xml version="1.0" standalone="no"?>
<!DOCTYPE svg PUBLIC "-//W3C//DTD SVG 20010904//EN"
 "http://www.w3.org/TR/2001/REC-SVG-20010904/DTD/svg10.dtd">
<svg version="1.0" xmlns="http://www.w3.org/2000/svg"
 width="1252.000000pt" height="1218.000000pt" viewBox="0 0 1252.000000 1218.000000"
 preserveAspectRatio="xMidYMid meet">

<g transform="translate(0.000000,1218.000000) scale(0.100000,-0.100000)"
fill="#000000" stroke="none">
<path d="M2250 11803 c-242 -36 -346 -63 -510 -128 -262 -103 -519 -283 -707
-495 -255 -288 -416 -635 -468 -1011 -14 -102 -15 -515 -12 -4029 3 -3661 4
-3921 20 -4000 90 -441 296 -810 607 -1087 270 -240 586 -393 950 -460 90 -17
318 -18 4130 -18 3814 0 4040 1 4130 18 590 109 1074 458 1358 977 82 151 158
368 199 570 16 79 17 339 20 4000 3 3514 2 3927 -12 4029 -117 845 -778 1507
-1624 1625 -100 14 -530 16 -4084 15 -2185 -1 -3983 -3 -3997 -6z m7985 -84
c642 -61 1197 -450 1476 -1034 90 -187 147 -398 168 -610 12 -135 12 -7635 0
-7770 -83 -873 -771 -1561 -1644 -1644 -135 -12 -7815 -12 -7950 0 -872 83
-1561 772 -1644 1644 -12 135 -12 7635 0 7770 61 642 450 1197 1034 1476 186
89 408 150 609 168 131 12 7828 11 7951 0z"/>
<path d="M4720 10350 c-11 -11 -20 -24 -20 -30 0 -13 37 -50 50 -50 6 0 19 9
30 20 21 21 18 46 -8 68 -21 16 -29 15 -52 -8z"/>
<path d="M7540 10350 c-11 -11 -20 -24 -20 -30 0 -13 37 -50 50 -50 6 0 19 9
30 20 21 21 18 46 -8 68 -21 16 -29 15 -52 -8z"/>
<path d="M4030 10065 l0 -295 35 0 35 0 0 233 0 232 91 -157 c84 -144 94 -158
119 -158 26 0 36 14 119 158 l91 157 0 -232 0 -233 35 0 35 0 0 295 0 295 -37
0 -38 -1 -99 -174 c-55 -96 -102 -172 -106 -170 -4 2 -51 81 -106 175 l-98
170 -38 0 -38 0 0 -295z"/>
<path d="M5715 10216 c-5 -3 -22 -7 -37 -10 -40 -9 -89 -55 -110 -104 -21 -47
-26 -153 -9 -209 24 -83 97 -133 191 -133 130 0 200 81 200 232 0 100 -34 169
-101 203 -26 14 -116 28 -134 21z m113 -82 c12 -8 29 -29 37 -45 17 -32 23
-124 11 -175 -24 -108 -194 -127 -242 -26 -22 48 -23 156 -1 199 25 47 54 63
117 63 34 0 64 -6 78 -16z"/>
<path d="M6114 10209 c-75 -22 -113 -104 -78 -168 16 -30 34 -42 113 -76 52
-22 99 -48 105 -58 17 -26 -12 -69 -53 -81 -32 -9 -130 2 -173 19 -15 6 -18 2
-18 -22 0 -38 31 -54 121 -60 119 -10 189 36 189 122 0 62 -32 96 -122 130
-40 14 -81 34 -90 42 -22 20 -23 66 -2 84 18 15 105 15 159 0 l36 -10 -3 32
c-3 29 -7 33 -53 44 -60 13 -90 14 -131 2z"/>
<path d="M6525 10211 c-104 -27 -151 -108 -143 -246 7 -133 63 -194 187 -203
49 -3 83 0 120 13 46 15 51 19 51 47 0 25 -3 29 -17 23 -41 -16 -132 -27 -167
-21 -55 10 -96 52 -103 104 l-6 42 146 0 147 0 6 26 c9 36 -3 112 -24 148 -33
56 -122 86 -197 67z m132 -83 c8 -9 17 -34 20 -57 l6 -41 -118 0 -117 0 6 32
c8 41 41 76 80 86 38 10 103 -1 123 -20z"/>
<path d="M8245 10216 c-5 -3 -22 -7 -37 -10 -41 -9 -95 -61 -114 -111 -12 -34
-15 -65 -12 -129 5 -103 34 -156 101 -187 52 -23 146 -25 210 -3 42 14 47 19
47 46 0 27 -3 30 -22 23 -94 -29 -183 -30 -218 -2 -30 23 -50 61 -50 94 l0 33
144 0 144 0 7 30 c16 73 -20 166 -74 195 -30 15 -107 28 -126 21z m77 -70 c31
-7 58 -50 58 -91 l0 -25 -115 0 c-113 0 -115 0 -115 23 0 18 12 44 36 75 7 9
81 31 94 27 8 -2 27 -6 42 -9z"/>
<path d="M8604 10209 c-75 -22 -113 -104 -78 -168 16 -30 34 -42 113 -76 52
-22 99 -48 105 -58 17 -26 -12 -69 -53 -81 -32 -9 -130 2 -173 19 -15 6 -18 2
-18 -22 0 -38 31 -54 121 -60 119 -10 189 36 189 122 0 62 -32 96 -122 130
-40 14 -81 34 -90 42 -22 20 -23 66 -2 84 18 15 105 15 159 0 l36 -10 -3 32
c-3 29 -7 33 -53 44 -60 13 -90 14 -131 2z"/>
<path d="M4717 10201 c-2 -3 -3 -100 -2 -216 l0 -210 33 -3 32 -3 0 215 c0
119 -3 216 -7 217 -5 0 -18 2 -31 3 -13 2 -24 0 -25 -3z"/>
<path d="M4984 10191 c-70 -32 -104 -100 -104 -211 0 -89 33 -156 92 -191 35
-19 56 -24 113 -23 86 0 115 14 115 54 0 28 -2 29 -26 20 -42 -16 -146 -12
-173 6 -33 24 -51 74 -51 145 0 125 48 166 178 155 70 -6 72 -5 72 18 0 15 -9
27 -25 34 -40 18 -144 14 -191 -7z"/>
<path d="M5293 10203 c-10 -4 -13 -57 -13 -219 l0 -214 35 0 35 0 2 166 c3
167 3 167 29 186 17 13 44 20 78 21 51 2 51 2 51 34 0 32 -2 33 -38 33 -21 0
-59 -11 -85 -23 -45 -23 -46 -23 -49 -4 -3 20 -22 28 -45 20z"/>
<path d="M6848 10202 c-17 -3 -18 -22 -18 -218 l0 -214 35 0 35 0 0 159 c0
132 3 162 16 175 27 28 56 38 105 39 33 1 49 5 51 15 2 8 40 -75 85 -184 l81
-199 33 0 34 0 86 210 c48 116 85 213 83 216 -5 9 -55 2 -65 -8 -4 -4 -37 -82
-72 -173 -63 -159 -65 -164 -76 -135 -81 212 -126 314 -141 318 -10 2 -48 4
-86 3 -55 -1 -76 -6 -102 -24 -31 -22 -32 -22 -32 -4 0 20 -22 31 -52 24z"/>
<path d="M7537 10201 c-2 -3 -3 -100 -2 -216 l0 -210 33 -3 32 -3 0 215 c0
119 -3 216 -7 217 -5 0 -18 2 -31 3 -13 2 -24 0 -25 -3z"/>
<path d="M7804 10191 c-70 -32 -104 -100 -104 -211 0 -89 33 -156 92 -191 35
-19 56 -24 113 -23 86 0 115 14 115 54 0 28 -2 29 -26 20 -42 -16 -146 -12
-173 6 -33 24 -51 74 -51 145 0 125 48 166 178 155 70 -6 72 -5 72 18 0 15 -9
27 -25 34 -40 18 -144 14 -191 -7z"/>
<path d="M1250 7460 l0 -990 1045 0 1045 0 0 -900 0 -900 -1045 0 -1045 0 0
-990 0 -990 2120 0 2120 0 0 455 0 455 760 0 760 0 0 -435 0 -435 2120 0 2120
0 0 980 0 980 -1035 0 -1035 0 0 890 0 890 1035 0 1035 0 0 990 0 990 -2120 0
-2120 0 0 -485 0 -485 -760 0 -760 0 0 485 0 485 -2120 0 -2120 0 0 -990z
m575 220 c21 -8 26 -16 23 -38 -2 -18 -8 -26 -18 -24 -43 10 -133 3 -156 -13
-73 -47 -72 -223 0 -270 21 -14 42 -17 106 -13 l80 5 0 -28 c0 -21 -7 -29 -31
-38 -73 -25 -175 -7 -227 42 -34 32 -49 65 -57 127 -13 111 29 205 109 241 45
20 129 25 171 9z m3285 -211 l0 -209 -35 0 -35 0 0 175 0 175 -50 -20 c-28
-11 -53 -20 -55 -20 -3 0 -5 14 -5 30 0 27 6 33 48 52 56 24 102 36 120 30 9
-3 12 -55 12 -213z m2470 212 c17 -5 26 -15 28 -33 l3 -27 -73 2 c-42 0 -83
-5 -96 -12 -83 -45 -85 -237 -2 -281 25 -14 92 -17 143 -7 36 8 37 7 37 -21 0
-34 -9 -39 -83 -48 -67 -8 -128 9 -172 47 -43 38 -58 85 -58 175 1 107 39 171
120 200 40 14 112 17 153 5z m3316 -25 c64 -64 42 -144 -72 -266 l-66 -70 96
0 96 0 0 -30 0 -31 -142 3 -143 3 4 25 c1 13 33 58 71 100 118 132 141 180
103 222 -21 24 -69 23 -118 -2 -22 -11 -41 -20 -43 -20 -2 0 -2 15 0 33 4 42
51 67 127 67 47 0 57 -4 87 -34z m-6286 -41 l0 -45 46 0 c44 0 45 -1 42 -27
-3 -25 -7 -28 -43 -28 l-40 0 -3 -89 c-3 -103 5 -119 54 -110 32 6 34 5 34
-24 0 -27 -4 -30 -39 -36 -44 -7 -88 6 -107 32 -9 11 -13 51 -14 120 0 74 -3
102 -12 103 -7 1 -20 2 -28 3 -9 0 -15 11 -15 26 0 20 6 26 26 28 23 3 28 9
34 48 6 41 9 44 36 44 28 0 29 -2 29 -45z m5770 0 l0 -45 45 0 c41 0 45 -2 45
-25 0 -23 -4 -25 -45 -25 l-45 0 0 -99 c0 -89 2 -100 19 -106 11 -3 31 -3 45
1 24 6 26 3 26 -24 0 -27 -4 -30 -37 -34 -47 -6 -91 6 -109 29 -9 13 -13 51
-14 126 l0 107 -30 0 c-23 0 -30 4 -30 20 0 15 8 22 30 26 26 6 30 12 36 50 6
40 9 44 35 44 28 0 29 -2 29 -45z m-8265 -49 c51 -22 75 -68 75 -144 0 -115
-48 -172 -145 -172 -96 0 -148 58 -149 165 0 71 21 117 67 145 38 24 104 26
152 6z m373 -2 c21 -14 26 -14 63 0 47 19 108 20 131 2 30 -22 38 -64 38 -187
l0 -119 -35 0 -35 0 0 111 c0 61 -5 119 -10 130 -12 22 -55 25 -95 7 -25 -11
-25 -12 -25 -130 l0 -118 -35 0 -35 0 0 124 c0 104 -3 125 -16 130 -24 9 -50
7 -79 -6 -25 -11 -25 -12 -25 -130 l0 -118 -35 0 -35 0 0 155 0 155 29 0 c16
0 31 -5 33 -10 2 -7 16 -6 38 4 46 20 100 20 128 0z m553 -10 c47 -42 64 -149
35 -217 -30 -72 -111 -106 -175 -74 l-30 15 -3 -71 -3 -72 -30 0 -30 0 -3 218
-2 217 30 0 c16 0 30 -4 30 -10 0 -5 15 -2 33 6 42 19 121 13 148 -12z m314
12 c51 -22 75 -68 75 -144 0 -115 -48 -172 -145 -172 -96 0 -148 58 -149 165
0 71 21 117 67 145 38 24 104 26 152 6z m391 -9 c26 -23 27 -25 29 -161 l3
-137 -37 3 -36 3 -2 114 c-2 66 -8 119 -14 127 -14 17 -59 18 -94 2 -25 -11
-25 -12 -25 -130 l0 -118 -35 0 -35 0 0 155 0 155 29 0 c16 0 31 -5 33 -10 2
-7 16 -6 38 4 54 23 114 20 146 -7z m303 8 c39 -19 58 -71 53 -142 -2 -22 -5
-23 -101 -23 l-100 0 9 -31 c15 -51 35 -61 118 -55 71 6 72 5 72 -18 0 -30
-40 -46 -115 -46 -61 0 -111 28 -135 75 -20 42 -18 142 3 183 35 65 129 92
196 57z m367 -8 c27 -24 27 -25 29 -161 l2 -137 -36 3 -36 3 -2 114 c-2 66 -8
119 -14 127 -14 17 -59 18 -94 2 -25 -11 -25 -12 -25 -130 l0 -118 -35 0 -35
0 0 155 0 155 29 0 c16 0 31 -5 33 -10 2 -7 16 -6 38 4 54 23 114 20 146 -7z
m3463 5 c48 -26 71 -74 71 -147 0 -104 -54 -165 -145 -165 -94 0 -147 59 -147
165 0 45 5 74 19 97 36 63 133 87 202 50z m371 0 c22 -18 24 -18 59 0 50 26
104 23 138 -6 28 -24 28 -25 31 -160 l4 -136 -36 0 -36 0 0 111 c0 61 -5 119
-10 130 -12 22 -55 25 -95 7 -25 -11 -25 -12 -25 -130 l0 -118 -35 0 -34 0 -3
128 -3 127 -31 3 c-16 2 -42 -2 -57 -7 l-27 -11 0 -120 0 -120 -35 0 -35 0 0
155 0 155 29 0 c16 0 31 -5 33 -10 2 -7 16 -6 38 4 48 21 103 20 130 -2z m541
-5 c76 -51 80 -207 6 -275 -33 -31 -95 -39 -136 -19 l-31 15 0 -69 c0 -38 -3
-70 -7 -70 -5 -1 -19 -2 -33 -3 l-25 -1 -3 218 -2 217 29 0 c16 0 31 -5 33
-11 2 -6 14 -5 33 5 43 23 96 20 136 -7z m338 5 c48 -26 71 -74 71 -147 0
-104 -54 -165 -145 -165 -94 0 -147 59 -147 165 0 45 5 74 19 97 36 63 133 87
202 50z m376 -7 c24 -23 25 -29 25 -160 l0 -136 -31 3 -32 3 -1 118 c-2 128
-5 137 -58 137 -15 0 -39 -5 -53 -12 -25 -11 -25 -12 -25 -130 l0 -118 -35 0
-35 0 0 155 0 155 29 0 c16 0 31 -5 33 -10 2 -7 16 -6 38 4 56 24 116 21 145
-9z m304 14 c46 -16 65 -61 62 -141 l-1 -28 -100 0 c-55 0 -100 -2 -100 -5 0
-3 6 -21 14 -40 18 -41 44 -50 127 -41 58 6 59 5 59 -19 0 -19 -7 -26 -37 -34
-91 -26 -172 -3 -206 57 -14 23 -19 52 -19 97 0 77 22 122 72 147 40 21 83 23
129 7z m376 -14 c24 -23 25 -29 25 -160 l0 -136 -31 3 -32 3 -1 118 c-2 128
-5 137 -58 137 -15 0 -39 -5 -53 -12 -25 -11 -25 -12 -25 -130 l0 -118 -35 0
-35 0 0 155 0 155 29 0 c16 0 31 -5 33 -10 2 -7 16 -6 38 4 56 24 116 21 145
-9z m-3175 -610 l0 -475 1055 0 1055 0 0 -890 0 -890 -1055 0 -1055 0 0 -515
0 -515 -760 0 -760 0 0 505 0 505 -1045 0 -1045 0 0 900 0 900 1045 0 1045 0
0 475 0 475 760 0 760 0 0 -475z m570 -3014 c17 -5 26 -15 28 -33 l3 -27 -75
2 c-62 2 -79 -2 -103 -19 -41 -30 -53 -61 -53 -134 0 -112 40 -154 142 -153
35 1 70 2 78 4 10 3 16 -5 18 -23 3 -23 -2 -29 -25 -35 -36 -10 -130 -10 -165
0 -39 10 -87 54 -104 96 -23 54 -21 167 3 221 11 25 29 53 41 63 44 39 143 57
212 38z m3330 -140 c0 -125 2 -138 18 -138 33 0 38 -3 40 -28 1 -22 -2 -25
-28 -25 -29 0 -30 -2 -30 -45 0 -45 0 -45 -35 -45 -35 0 -35 0 -35 45 l0 45
-100 0 c-98 0 -100 0 -100 23 0 14 42 84 100 165 96 136 102 142 135 142 l35
0 0 -139z m-9091 113 c27 -6 31 -11 31 -39 l0 -32 -46 7 c-53 8 -117 -1 -140
-21 -63 -52 -57 -220 9 -264 26 -17 103 -22 156 -10 29 6 31 5 31 -24 0 -26
-5 -31 -37 -40 -117 -33 -233 15 -265 108 -6 20 -12 68 -12 106 1 73 22 132
61 167 45 41 130 58 212 42z m8559 -41 l3 -43 45 0 c40 0 44 -2 44 -25 0 -23
-4 -25 -45 -25 l-45 0 0 -100 c0 -96 1 -100 24 -106 13 -3 32 -4 42 -2 20 3
32 -28 16 -44 -11 -11 -79 -13 -109 -4 -32 10 -43 50 -43 156 l0 100 -30 0
c-23 0 -30 4 -30 20 0 15 8 22 30 26 26 6 30 12 36 51 6 40 9 44 33 41 23 -3
26 -8 29 -45z m-5218 11 c0 -17 -17 -45 -50 -81 -50 -55 -55 -73 -20 -73 35 0
81 -51 87 -96 15 -115 -100 -184 -238 -142 -34 10 -39 15 -39 40 0 28 1 29 33
21 17 -4 56 -8 85 -8 44 0 57 4 73 24 26 31 24 57 -6 86 -19 20 -34 25 -75 25
-44 0 -50 2 -50 21 0 12 25 50 55 85 l56 63 -78 3 c-77 3 -78 3 -81 31 l-3 27
125 0 126 0 0 -26z m-550 -39 l0 -45 46 0 c44 0 45 -1 42 -27 -3 -26 -6 -28
-45 -27 l-43 0 0 -97 c0 -87 2 -98 19 -104 11 -3 31 -3 45 1 24 6 26 3 26 -24
0 -27 -4 -30 -39 -36 -46 -7 -98 9 -111 34 -6 10 -10 66 -10 124 0 96 -1 105
-18 101 -26 -5 -45 9 -40 31 2 12 13 20 30 22 22 3 27 9 33 48 6 41 9 44 36
44 28 0 29 -2 29 -45z m3269 -23 c47 -26 71 -74 71 -145 0 -106 -54 -167 -147
-167 -92 0 -145 60 -145 165 0 45 5 74 19 97 36 63 133 87 202 50z m372 -1
c21 -16 26 -17 45 -5 12 8 44 17 71 20 43 6 53 3 79 -19 l29 -25 3 -136 4
-136 -36 0 -36 0 0 118 c0 78 -4 122 -12 130 -15 15 -60 15 -93 0 -25 -11 -25
-12 -25 -130 l0 -118 -33 0 -34 0 0 119 c0 65 -4 124 -7 130 -9 14 -71 14 -97
1 -17 -10 -19 -22 -19 -130 l0 -120 -35 0 -35 0 0 155 0 155 29 0 c16 0 31 -5
33 -10 2 -7 16 -6 38 4 49 21 103 20 131 -3z m528 5 c40 -21 62 -60 68 -119 7
-71 -11 -130 -48 -161 -42 -36 -76 -42 -126 -24 l-43 16 0 -69 c0 -39 -4 -70
-10 -70 -5 -1 -17 -1 -25 -1 -8 0 -19 0 -25 1 -6 1 -10 80 -10 216 l0 215 29
0 c16 0 31 -5 33 -11 2 -6 14 -5 33 5 38 20 88 20 124 2z m350 -4 c47 -26 71
-74 71 -145 0 -106 -54 -167 -147 -167 -92 0 -145 60 -145 165 0 45 5 74 19
97 36 63 133 87 202 50z m376 -7 c24 -23 25 -29 25 -160 l0 -135 -30 0 -30 0
0 104 c0 133 -8 156 -54 156 -19 0 -47 -5 -61 -12 -25 -11 -25 -12 -25 -130
l0 -118 -35 0 -35 0 0 155 0 155 30 0 c21 0 30 -5 30 -16 0 -12 4 -14 13 -7
21 17 70 31 110 32 28 1 45 -6 62 -24z m310 10 c40 -20 55 -51 55 -115 l0 -50
-100 0 c-55 0 -100 -2 -100 -5 0 -3 6 -21 14 -40 18 -41 44 -50 127 -41 57 5
59 5 59 -18 0 -18 -8 -25 -39 -34 -88 -27 -169 -5 -204 56 -14 23 -19 52 -19
97 0 77 22 122 72 147 43 22 92 23 135 3z m370 -10 c24 -23 25 -29 25 -160 l0
-135 -30 0 -30 0 0 104 c0 133 -8 156 -54 156 -19 0 -47 -5 -61 -12 -25 -11
-25 -12 -25 -130 l0 -118 -35 0 -35 0 0 155 0 155 30 0 c21 0 30 -5 30 -16 0
-12 4 -14 13 -7 21 17 70 31 110 32 28 1 45 -6 62 -24z m-8066 -23 c48 -24 71
-73 71 -151 0 -105 -51 -161 -147 -161 -92 0 -148 63 -147 166 1 103 56 164
149 164 22 0 55 -8 74 -18z m369 2 c21 -14 26 -14 63 0 47 19 108 20 131 2 30
-22 38 -64 38 -187 l0 -119 -35 0 -35 0 0 111 c0 61 -5 119 -10 130 -12 22
-55 25 -95 7 -25 -11 -25 -12 -25 -130 l0 -118 -35 0 -35 0 0 114 c0 63 -3
121 -6 130 -7 19 -52 21 -89 4 -25 -11 -25 -12 -25 -130 l0 -118 -35 0 -35 0
0 155 0 155 29 0 c16 0 31 -5 33 -10 2 -7 16 -6 38 4 46 20 100 20 128 0z
m553 -10 c47 -42 64 -149 35 -217 -30 -72 -111 -106 -175 -74 l-30 15 -3 -71
-3 -72 -30 0 -30 0 -3 218 -2 217 30 0 c16 0 30 -4 30 -10 0 -5 15 -2 33 6 42
19 121 13 148 -12z m318 8 c48 -24 71 -73 71 -151 0 -105 -51 -161 -147 -161
-92 0 -148 63 -147 166 1 103 56 164 149 164 22 0 55 -8 74 -18z m386 -7 c28
-27 27 -19 29 -178 l1 -118 -35 3 -35 3 -1 112 c0 75 -5 117 -14 128 -15 18
-59 20 -95 3 -25 -11 -25 -12 -25 -130 l0 -118 -35 0 -35 0 0 155 0 155 29 0
c16 0 31 -5 33 -10 2 -7 16 -6 38 4 56 24 116 21 145 -9z m304 10 c39 -19 58
-71 53 -142 -2 -22 -5 -23 -101 -23 l-100 0 9 -31 c15 -51 35 -61 118 -55 71
6 72 5 72 -18 0 -32 -52 -50 -127 -44 -94 8 -137 58 -137 163 1 72 22 118 67
145 38 24 106 26 146 5z m366 -10 c28 -27 27 -19 29 -178 l1 -118 -35 3 -35 3
-1 112 c0 75 -5 117 -14 128 -15 18 -59 20 -95 3 -25 -11 -25 -12 -25 -130 l0
-118 -35 0 -35 0 0 155 0 155 29 0 c16 0 31 -5 33 -10 2 -7 16 -6 38 4 56 24
116 21 145 -9z"/>
<path d="M1991 7494 c-15 -19 -21 -41 -21 -79 0 -68 27 -105 75 -105 48 0 75
37 75 105 0 68 -27 105 -75 105 -24 0 -39 -7 -54 -26z"/>
<path d="M2893 7508 c-21 -10 -23 -18 -23 -94 l0 -82 34 -12 c75 -25 122 22
114 112 -3 27 -13 57 -23 68 -20 22 -66 25 -102 8z"/>
<path d="M3231 7494 c-15 -19 -21 -41 -21 -79 0 -68 27 -105 75 -105 48 0 75
37 75 105 0 68 -27 105 -75 105 -24 0 -39 -7 -54 -26z"/>
<path d="M3927 7502 c-10 -10 -17 -26 -17 -35 0 -14 11 -17 65 -17 58 0 65 2
65 19 0 47 -80 70 -113 33z"/>
<path d="M7758 7506 c-39 -29 -38 -153 0 -182 9 -8 31 -14 49 -14 46 0 73 38
73 105 0 67 -27 105 -73 105 -18 0 -40 -7 -49 -14z"/>
<path d="M8648 7509 c-15 -8 -18 -24 -18 -93 0 -79 1 -83 25 -94 74 -34 125 8
125 101 0 61 -29 97 -78 97 -20 0 -45 -5 -54 -11z"/>
<path d="M9008 7506 c-39 -29 -38 -153 0 -182 9 -8 31 -14 49 -14 46 0 73 38
73 105 0 67 -27 105 -73 105 -18 0 -40 -7 -49 -14z"/>
<path d="M9735 7522 c-26 -5 -52 -29 -58 -53 -5 -17 1 -19 64 -19 60 0 69 2
69 18 0 37 -36 62 -75 54z"/>
<path d="M10782 3750 c-29 -43 -53 -83 -53 -87 1 -4 26 -8 56 -8 l55 -1 0 88
c0 48 -1 88 -2 88 -2 -1 -27 -36 -56 -80z"/>
<path d="M7756 3757 c-38 -28 -38 -153 0 -182 11 -8 33 -15 51 -15 46 0 73 38
73 105 0 67 -27 105 -74 105 -18 0 -40 -6 -50 -13z"/>
<path d="M8648 3759 c-15 -8 -18 -24 -18 -93 0 -79 1 -83 25 -94 37 -17 69
-15 96 7 18 14 23 31 27 77 5 77 -20 114 -76 114 -20 0 -45 -5 -54 -11z"/>
<path d="M9006 3757 c-38 -28 -38 -153 0 -182 11 -8 33 -15 51 -15 46 0 73 38
73 105 0 67 -27 105 -74 105 -18 0 -40 -6 -50 -13z"/>
<path d="M9714 3768 c-18 -8 -44 -46 -44 -63 0 -3 32 -5 70 -5 61 0 70 2 70
18 0 43 -52 70 -96 50z"/>
<path d="M1991 3714 c-15 -19 -21 -41 -21 -79 0 -68 27 -105 75 -105 48 0 75
37 75 105 0 68 -27 105 -75 105 -24 0 -39 -7 -54 -26z"/>
<path d="M2888 3726 c-15 -11 -18 -29 -18 -94 l0 -80 36 -12 c48 -16 80 -6
100 32 20 39 14 120 -11 148 -21 23 -80 27 -107 6z"/>
<path d="M3231 3714 c-15 -19 -21 -41 -21 -79 0 -68 27 -105 75 -105 48 0 75
37 75 105 0 68 -27 105 -75 105 -24 0 -39 -7 -54 -26z"/>
<path d="M3928 3723 c-38 -45 -32 -53 42 -53 62 0 70 2 70 19 0 47 -80 71
-112 34z"/>
</g>
</svg>
